<?xml version="1.0" encoding="UTF-8" standalone="no"?>
<svg
   viewBox="0 0 213.93199 97.846664"
   height="97.846664"
   width="213.93199"
   xml:space="preserve"
   id="svg2"
   version="1.1"
   sodipodi:docname="interactive-instruments.svg"
   inkscape:version="1.1 (c4e8f9e, 2021-05-24)"
   xmlns:inkscape="http://www.inkscape.org/namespaces/inkscape"
   xmlns:sodipodi="http://sodipodi.sourceforge.net/DTD/sodipodi-0.dtd"
   xmlns="http://www.w3.org/2000/svg"
   xmlns:svg="http://www.w3.org/2000/svg"
   xmlns:rdf="http://www.w3.org/1999/02/22-rdf-syntax-ns#"
   xmlns:cc="http://creativecommons.org/ns#"
   xmlns:dc="http://purl.org/dc/elements/1.1/"><sodipodi:namedview
     id="namedview78"
     pagecolor="#ffffff"
     bordercolor="#666666"
     borderopacity="1.0"
     inkscape:pageshadow="2"
     inkscape:pageopacity="0.0"
     inkscape:pagecheckerboard="0"
     showgrid="false"
     inkscape:zoom="3.4548092"
     inkscape:cx="104.49202"
     inkscape:cy="39.510141"
     inkscape:window-width="1920"
     inkscape:window-height="1027"
     inkscape:window-x="0"
     inkscape:window-y="25"
     inkscape:window-maximized="1"
     inkscape:current-layer="svg2" /><metadata
     id="metadata8"><rdf:RDF><cc:Work
         rdf:about=""><dc:format>image/svg+xml</dc:format><dc:type
           rdf:resource="http://purl.org/dc/dcmitype/StillImage" /></cc:Work></rdf:RDF></metadata><defs
     id="defs6"><clipPath
       id="clipPath14"
       clipPathUnits="userSpaceOnUse"><path
         id="path12"
         d="M 0,0 H 173 V 88 H 0 Z" /></clipPath><clipPath
       id="clipPath24"
       clipPathUnits="userSpaceOnUse"><path
         id="path22"
         d="M 0,0 H 173 V 88 H 0 Z" /></clipPath></defs><g
     clip-path="url(#clipPath14)"
     transform="matrix(1.3333333,0,0,-1.3333333,-10.601333,107.18)"
     id="g10"><g
       id="g16" /><g
       id="g18"><g
         clip-path="url(#clipPath24)"
         id="g20"><path
           id="path26"
           style="fill:#999ea1;fill-opacity:1;fill-rule:nonzero;stroke:none"
           d="m 10.41,32.607 h 35.131 v 35.13 H 10.41 Z" /><path
           id="path28"
           style="fill:#878c90;fill-opacity:1;fill-rule:nonzero;stroke:none"
           d="m 39.153,35.801 h 3.194 v -3.193 h -3.194 z m 3.194,3.194 h 3.194 V 35.801 H 42.347 Z M 29.572,35.801 h 3.194 v -3.193 h -3.194 z" /><path
           id="path30"
           style="fill:#a9aeb1;fill-opacity:1;fill-rule:nonzero;stroke:none"
           d="m 26.379,38.995 h 3.194 v -3.194 h -3.194 z m 9.581,6.387 h 3.194 V 42.188 H 35.96 Z m 3.193,9.582 h 3.194 V 51.77 h -3.194 z m 3.194,6.387 h 3.194 v -3.194 h -3.194 z m -6.387,3.193 h 3.194 V 61.35 H 35.96 Z m -3.194,3.194 h 3.194 v -3.194 h -3.194 z m -6.387,0 h 3.194 v -3.194 h -3.194 z m 3.193,-3.194 h 3.194 V 61.35 h -3.194 z m 3.194,-3.193 h 3.194 v -3.194 h -3.194 z m -6.387,-6.387 h 3.194 V 51.77 h -3.194 z m 3.193,3.193 h 3.194 v -3.194 h -3.194 z m -3.193,3.194 h 3.194 V 58.157 H 26.379 Z M 23.185,51.77 h 3.194 v -3.194 h -3.194 z m 3.194,-3.194 h 3.194 v -3.194 h -3.194 z m -3.194,-3.194 h 3.194 v -3.194 h -3.194 z m -3.194,3.194 h 3.194 v -3.194 h -3.194 z m -3.193,3.194 h 3.194 v -3.194 h -3.194 z m -6.388,0 h 3.194 V 48.576 H 10.41 Z m 3.194,-3.194 h 3.194 V 45.382 H 13.604 Z M 10.41,45.382 h 3.194 V 42.188 H 10.41 Z m 0,-6.387 h 3.194 V 35.801 H 10.41 Z m 3.194,3.195 h 3.194 v -3.194 h -3.194 z m 3.194,3.192 h 3.194 v -3.194 h -3.194 z" /><path
           id="path32"
           style="fill:#babec1;fill-opacity:1;fill-rule:nonzero;stroke:none"
           d="m 10.41,48.576 h 3.194 V 45.382 H 10.41 Z m 15.969,9.581 h 3.194 V 54.963 H 26.379 Z M 13.604,45.382 h 3.194 v -3.194 h -3.194 z m 3.194,3.194 h 3.194 v -3.194 h -3.194 z m 6.387,0 h 3.194 v -3.194 h -3.194 z m -3.194,3.194 h 3.194 v -3.194 h -3.194 z m -6.387,0 h 3.194 v -3.194 h -3.194 z m 3.194,3.194 h 3.194 V 51.77 h -3.194 z m -6.388,0 h 3.194 V 51.77 H 10.41 Z m 3.194,3.193 h 3.194 v -3.194 h -3.194 z m 6.387,0 h 3.194 v -3.194 h -3.194 z m 3.194,-3.193 h 3.194 V 51.77 h -3.194 z m 0,6.387 h 3.194 v -3.194 h -3.194 z m 3.194,3.193 h 3.194 V 61.35 h -3.194 z m 3.193,3.194 h 3.194 v -3.194 h -3.194 z m 3.194,-3.194 H 35.96 V 61.35 h -3.194 z m -3.194,-3.193 h 3.194 v -3.194 h -3.194 z" /><path
           id="path34"
           style="fill:#cacdcf;fill-opacity:1;fill-rule:nonzero;stroke:none"
           d="m 10.41,64.544 h 3.221 V 61.327 H 10.41 Z m 9.581,3.194 h 3.194 v -3.194 h -3.194 z m 3.194,-3.194 h 3.194 V 61.35 H 23.185 Z M 10.41,58.157 h 3.194 V 54.963 H 10.41 Z m 12.775,0 h 3.194 v -3.194 h -3.194 z m -6.387,0 h 3.194 v -3.194 h -3.194 z m 3.193,-3.193 h 3.194 V 51.77 h -3.194 z m -6.387,0 h 3.194 V 51.77 h -3.194 z" /><path
           id="path36"
           style="fill:#dcdedf;fill-opacity:1;fill-rule:nonzero;stroke:none"
           d="m 10.41,61.351 h 3.194 V 58.157 H 10.41 Z m 0,6.387 h 3.194 V 64.544 H 10.41 Z m 3.194,-3.194 h 3.194 V 61.35 h -3.194 z m 3.194,3.194 h 3.194 v -3.194 h -3.194 z m 6.387,0 h 3.194 v -3.194 h -3.194 z m -3.194,-3.194 h 3.194 V 61.35 h -3.194 z m -3.193,-3.193 h 3.194 v -3.194 h -3.194 z" /><path
           id="path38"
           style="fill:#edeeef;fill-opacity:1;fill-rule:nonzero;stroke:none"
           d="m 13.604,67.738 h 3.194 v -3.194 h -3.194 z m 6.387,-6.387 h 3.194 v -3.194 h -3.194 z m -6.387,0 h 3.194 v -3.194 h -3.194 z" /><path
           id="path40"
           style="fill:#ffffff;fill-opacity:1;fill-rule:nonzero;stroke:none"
           d="m 16.798,61.35 h 3.194 v 3.194 h -3.194 z" /><path
           id="path42"
           style="fill:#00aaa7;fill-opacity:1;fill-rule:nonzero;stroke:none"
           d="M 26.965,43.849 44.002,80.385 H 48 L 30.963,43.849" /><path
           id="path44"
           style="fill:#00aaa7;fill-opacity:1;fill-rule:nonzero;stroke:none"
           d="M 28.986,56.496 11.949,19.96 H 7.951 l 17.037,36.536" /><path
           id="path46"
           style="fill:#5c5f63;fill-opacity:1;fill-rule:nonzero;stroke:none"
           d="m 139.865,52.3 h 1.759 v 10.249 h -1.759 z m -0.375,14.142 c 0,-0.704 0.563,-1.266 1.266,-1.266 0.679,0 1.243,0.563 1.243,1.266 0,0.68 -0.564,1.243 -1.243,1.243 -0.704,0 -1.266,-0.563 -1.266,-1.243" /><path
           id="path48"
           style="fill:#5c5f63;fill-opacity:1;fill-rule:nonzero;stroke:none"
           d="m 147.681,62.549 h -1.995 l 5.044,-10.906 5.042,10.906 h -1.993 l -3.049,-6.895" /><path
           id="path50"
           style="fill:#5c5f63;fill-opacity:1;fill-rule:nonzero;stroke:none"
           d="m 168.182,57.061 c 0,0.234 0,0.398 0,0.516 -0.024,0.469 -0.071,0.938 -0.164,1.383 -0.165,0.751 -0.469,1.431 -0.845,1.97 -0.446,0.587 -1.055,1.079 -1.736,1.408 -0.656,0.304 -1.383,0.469 -2.133,0.469 -0.985,0 -1.923,-0.258 -2.674,-0.727 -0.774,-0.493 -1.407,-1.22 -1.782,-2.064 -0.352,-0.798 -0.516,-1.665 -0.54,-2.58 0,-0.962 0.188,-1.876 0.54,-2.673 0.399,-0.868 1.055,-1.595 1.899,-2.088 0.751,-0.422 1.642,-0.656 2.58,-0.656 0.68,0 1.337,0.117 1.97,0.328 0.563,0.211 1.079,0.516 1.525,0.915 0.375,0.328 0.703,0.703 0.961,1.149 0.094,0.14 0.188,0.305 0.305,0.492 l -1.501,0.845 c -0.094,-0.188 -0.188,-0.352 -0.281,-0.47 -0.211,-0.328 -0.446,-0.609 -0.68,-0.844 -0.305,-0.281 -0.681,-0.516 -1.103,-0.656 -0.375,-0.141 -0.774,-0.212 -1.172,-0.188 -0.563,0 -1.103,0.164 -1.572,0.445 -0.469,0.282 -0.891,0.728 -1.172,1.243 -0.235,0.446 -0.375,0.938 -0.422,1.454 0,0.094 0,0.188 -0.024,0.329 z m -1.853,1.477 h -6.051 c 0.024,0.117 0.047,0.188 0.047,0.235 0.07,0.375 0.235,0.727 0.469,1.079 0.282,0.422 0.681,0.773 1.103,1.008 0.445,0.235 0.938,0.352 1.407,0.352 0.469,0 0.938,-0.117 1.36,-0.329 0.422,-0.211 0.773,-0.515 1.055,-0.891 0.282,-0.375 0.468,-0.774 0.563,-1.243 0,-0.047 0.024,-0.117 0.047,-0.211" /><path
           id="path52"
           style="fill:#5c5f63;fill-opacity:1;fill-rule:nonzero;stroke:none"
           d="m 52.165,52.3 h 1.759 V 62.549 H 52.165 Z M 51.79,66.442 c 0,-0.704 0.563,-1.266 1.266,-1.266 0.68,0 1.243,0.563 1.243,1.266 0,0.68 -0.563,1.243 -1.243,1.243 -0.704,0 -1.266,-0.563 -1.266,-1.243" /><path
           id="path54"
           style="fill:#5c5f63;fill-opacity:1;fill-rule:nonzero;stroke:none"
           d="M 59.365,62.549 V 52.3 h 1.759 v 5.113 c 0,0.492 0.023,0.938 0.07,1.36 0.047,0.422 0.165,0.844 0.352,1.219 0.211,0.446 0.563,0.774 0.985,0.985 0.375,0.188 0.821,0.258 1.29,0.235 0.328,0 0.633,-0.094 0.938,-0.211 0.305,-0.141 0.563,-0.352 0.751,-0.633 0.14,-0.258 0.258,-0.587 0.281,-0.962 0.023,-0.305 0.047,-0.657 0.047,-1.055 V 52.3 h 1.759 v 6.355 c 0,0.446 -0.024,0.845 -0.071,1.243 -0.07,0.563 -0.234,1.079 -0.516,1.502 -0.281,0.445 -0.75,0.82 -1.313,1.055 -0.492,0.234 -1.055,0.352 -1.594,0.352 -0.61,0 -1.197,-0.141 -1.689,-0.376 -0.352,-0.164 -0.68,-0.422 -0.962,-0.727 -0.093,-0.117 -0.211,-0.234 -0.328,-0.398 v 1.243" /><path
           id="path56"
           style="fill:#5c5f63;fill-opacity:1;fill-rule:nonzero;stroke:none"
           d="m 74.924,60.86 h 1.829 v 1.642 h -1.829 v 3.776 H 73.165 V 62.502 H 72.11 V 60.86 h 1.055 V 52.3 h 1.759" /><path
           id="path58"
           style="fill:#5c5f63;fill-opacity:1;fill-rule:nonzero;stroke:none"
           d="m 89.582,57.061 c 0,0.234 0,0.398 0,0.516 -0.024,0.469 -0.071,0.938 -0.164,1.383 -0.164,0.751 -0.469,1.431 -0.845,1.97 -0.445,0.587 -1.055,1.079 -1.735,1.408 -0.657,0.304 -1.384,0.469 -2.134,0.469 -0.985,0 -1.923,-0.258 -2.674,-0.727 -0.774,-0.493 -1.407,-1.22 -1.782,-2.064 -0.352,-0.798 -0.516,-1.665 -0.539,-2.58 0,-0.962 0.187,-1.876 0.539,-2.673 0.398,-0.868 1.055,-1.595 1.899,-2.088 0.751,-0.422 1.642,-0.656 2.58,-0.656 0.68,0 1.337,0.117 1.97,0.328 0.563,0.211 1.079,0.516 1.525,0.915 0.375,0.328 0.703,0.703 0.961,1.149 0.094,0.14 0.188,0.305 0.305,0.492 l -1.501,0.845 c -0.094,-0.188 -0.188,-0.352 -0.281,-0.47 -0.211,-0.328 -0.446,-0.609 -0.681,-0.844 -0.304,-0.281 -0.68,-0.516 -1.102,-0.656 -0.375,-0.141 -0.774,-0.212 -1.172,-0.188 -0.563,0 -1.103,0.164 -1.572,0.445 -0.469,0.282 -0.891,0.728 -1.172,1.243 -0.235,0.446 -0.375,0.938 -0.422,1.454 0,0.094 0,0.188 -0.024,0.329 z m -1.854,1.477 h -6.05 c 0.024,0.117 0.047,0.188 0.047,0.235 0.071,0.375 0.235,0.727 0.469,1.079 0.282,0.422 0.68,0.773 1.103,1.008 0.445,0.235 0.938,0.352 1.407,0.352 0.469,0 0.938,-0.117 1.36,-0.329 0.422,-0.211 0.774,-0.515 1.055,-0.891 0.282,-0.375 0.469,-0.774 0.563,-1.243 0,-0.047 0.024,-0.117 0.046,-0.211" /><path
           id="path60"
           style="fill:#5c5f63;fill-opacity:1;fill-rule:nonzero;stroke:none"
           d="M 94.165,62.642 V 52.3 h 1.759 v 5.394 c 0,0.516 0.024,0.985 0.094,1.431 0.023,0.422 0.141,0.773 0.305,1.078 0.164,0.282 0.398,0.516 0.727,0.704 0.258,0.117 0.516,0.211 0.797,0.211 0.281,0.023 0.516,-0.023 0.727,-0.094 0.094,-0.047 0.235,-0.141 0.399,-0.258 l 0.844,1.595 c -0.211,0.117 -0.399,0.211 -0.516,0.258 -0.281,0.117 -0.61,0.164 -0.961,0.188 -0.352,0 -0.704,-0.047 -1.009,-0.141 -0.211,-0.094 -0.398,-0.211 -0.586,-0.352 -0.164,-0.141 -0.329,-0.281 -0.469,-0.446 -0.094,-0.117 -0.211,-0.257 -0.352,-0.422 v 1.196" /><path
           id="path62"
           style="fill:#5c5f63;fill-opacity:1;fill-rule:nonzero;stroke:none"
           d="m 110.498,62.549 v -1.454 c -0.141,0.187 -0.258,0.305 -0.353,0.398 -0.327,0.329 -0.726,0.634 -1.148,0.845 -0.61,0.304 -1.313,0.469 -2.04,0.469 -0.844,0 -1.665,-0.211 -2.369,-0.587 -0.868,-0.492 -1.571,-1.219 -1.97,-2.063 -0.399,-0.798 -0.586,-1.666 -0.61,-2.604 -0.023,-1.008 0.188,-1.993 0.61,-2.861 0.399,-0.821 1.056,-1.524 1.876,-2.017 0.727,-0.398 1.572,-0.633 2.439,-0.633 0.657,0 1.29,0.117 1.877,0.352 0.516,0.234 0.985,0.539 1.36,0.961 0.094,0.071 0.187,0.188 0.328,0.352 V 52.3 h 1.759 v 10.249 z m -6.707,-5.043 c 0.023,0.681 0.187,1.337 0.492,1.924 0.282,0.562 0.727,1.031 1.29,1.36 0.469,0.281 1.032,0.422 1.572,0.422 0.609,0 1.219,-0.164 1.758,-0.469 0.61,-0.352 1.056,-0.845 1.337,-1.407 0.235,-0.54 0.375,-1.149 0.375,-1.83 0,-0.68 -0.117,-1.336 -0.375,-1.899 -0.258,-0.657 -0.75,-1.196 -1.36,-1.548 -0.516,-0.305 -1.102,-0.446 -1.712,-0.446 -0.61,0 -1.196,0.165 -1.69,0.469 -0.538,0.329 -0.984,0.821 -1.242,1.431 -0.304,0.633 -0.445,1.313 -0.445,1.993" /><path
           id="path64"
           style="fill:#5c5f63;fill-opacity:1;fill-rule:nonzero;stroke:none"
           d="m 125.062,61.822 c -0.234,0.14 -0.398,0.258 -0.516,0.328 -0.351,0.188 -0.75,0.352 -1.196,0.469 -0.469,0.117 -0.961,0.188 -1.454,0.188 -1.102,0 -2.11,-0.282 -2.978,-0.798 -0.751,-0.492 -1.384,-1.172 -1.853,-2.017 -0.399,-0.75 -0.633,-1.571 -0.657,-2.415 -0.023,-0.915 0.165,-1.806 0.563,-2.627 0.469,-0.938 1.196,-1.735 2.111,-2.251 0.774,-0.422 1.689,-0.657 2.674,-0.68 0.539,0 1.078,0.046 1.571,0.187 0.444,0.117 0.891,0.305 1.313,0.54 0.117,0.07 0.282,0.164 0.493,0.328 v 2.322 c -0.258,-0.305 -0.493,-0.563 -0.704,-0.751 -0.305,-0.305 -0.68,-0.539 -1.079,-0.727 -0.516,-0.234 -1.055,-0.352 -1.594,-0.328 -0.704,0 -1.361,0.211 -1.924,0.563 -0.539,0.375 -0.984,0.914 -1.289,1.571 -0.258,0.563 -0.376,1.196 -0.352,1.829 0.023,0.634 0.187,1.22 0.469,1.759 0.352,0.633 0.844,1.149 1.454,1.478 0.492,0.281 1.102,0.422 1.712,0.422 0.445,0 0.891,-0.071 1.313,-0.235 0.469,-0.164 0.868,-0.422 1.196,-0.727 0.235,-0.211 0.469,-0.445 0.727,-0.75" /><path
           id="path66"
           style="fill:#5c5f63;fill-opacity:1;fill-rule:nonzero;stroke:none"
           d="m 132.624,60.86 h 1.829 v 1.642 h -1.829 v 3.776 h -1.759 V 62.502 H 129.81 V 60.86 h 1.055 V 52.3 h 1.759" /><path
           id="path68"
           style="fill:#5c5f63;fill-opacity:1;fill-rule:nonzero;stroke:none"
           d="m 52.165,32.6 h 1.759 V 42.849 H 52.165 Z M 51.79,46.742 c 0,-0.704 0.563,-1.266 1.266,-1.266 0.68,0 1.243,0.563 1.243,1.266 0,0.68 -0.563,1.243 -1.243,1.243 -0.704,0 -1.266,-0.563 -1.266,-1.243" /><path
           id="path70"
           style="fill:#5c5f63;fill-opacity:1;fill-rule:nonzero;stroke:none"
           d="M 58.865,42.849 V 32.6 h 1.759 v 5.113 c 0,0.492 0.023,0.938 0.07,1.36 0.047,0.422 0.164,0.844 0.352,1.219 0.211,0.446 0.563,0.774 0.985,0.985 0.375,0.188 0.821,0.258 1.29,0.235 0.328,0 0.633,-0.094 0.938,-0.211 0.305,-0.141 0.563,-0.352 0.751,-0.633 0.14,-0.258 0.258,-0.587 0.281,-0.962 0.023,-0.305 0.047,-0.657 0.047,-1.055 V 32.6 h 1.759 v 6.356 c 0,0.445 -0.024,0.844 -0.071,1.243 -0.07,0.562 -0.234,1.078 -0.516,1.501 -0.281,0.444 -0.75,0.819 -1.313,1.055 -0.492,0.234 -1.055,0.352 -1.594,0.352 -0.61,0 -1.197,-0.141 -1.689,-0.377 -0.352,-0.163 -0.68,-0.421 -0.962,-0.726 -0.094,-0.117 -0.211,-0.235 -0.328,-0.399 v 1.244" /><path
           id="path72"
           style="fill:#5c5f63;fill-opacity:1;fill-rule:nonzero;stroke:none"
           d="m 77.44,41.229 c -0.14,0.259 -0.234,0.447 -0.304,0.564 -0.282,0.375 -0.634,0.704 -1.079,0.937 -0.422,0.236 -0.891,0.353 -1.384,0.377 -0.539,0 -1.102,-0.141 -1.595,-0.399 -0.469,-0.258 -0.844,-0.61 -1.078,-1.032 -0.235,-0.375 -0.352,-0.822 -0.376,-1.313 -0.023,-0.423 0.047,-0.821 0.188,-1.173 0.164,-0.352 0.399,-0.68 0.727,-0.891 0.281,-0.211 0.61,-0.399 1.032,-0.609 0.352,-0.165 0.703,-0.329 1.032,-0.47 0.375,-0.164 0.68,-0.305 0.938,-0.445 0.234,-0.141 0.446,-0.352 0.586,-0.61 0.071,-0.141 0.141,-0.352 0.141,-0.587 0.023,-0.281 -0.047,-0.562 -0.164,-0.797 -0.141,-0.281 -0.352,-0.516 -0.61,-0.657 -0.258,-0.164 -0.563,-0.234 -0.891,-0.234 -0.305,-0.024 -0.61,0.047 -0.868,0.164 -0.281,0.141 -0.516,0.328 -0.703,0.586 -0.141,0.165 -0.258,0.352 -0.352,0.563 -0.071,0.094 -0.117,0.211 -0.188,0.352 l -1.548,-0.657 c 0.071,-0.164 0.141,-0.328 0.188,-0.445 0.188,-0.399 0.422,-0.751 0.727,-1.056 0.352,-0.351 0.774,-0.633 1.243,-0.797 0.469,-0.188 0.961,-0.281 1.477,-0.281 0.634,0 1.243,0.164 1.783,0.445 0.539,0.305 0.985,0.751 1.29,1.267 0.258,0.469 0.398,1.032 0.398,1.618 0,0.445 -0.07,0.867 -0.234,1.219 -0.211,0.422 -0.516,0.774 -0.891,1.056 -0.305,0.211 -0.657,0.398 -1.032,0.586 -0.258,0.117 -0.563,0.258 -0.915,0.399 -0.375,0.164 -0.704,0.305 -0.985,0.469 -0.235,0.117 -0.422,0.281 -0.539,0.469 -0.094,0.14 -0.141,0.328 -0.141,0.539 0,0.188 0.047,0.352 0.117,0.493 0.118,0.187 0.282,0.375 0.493,0.469 0.211,0.117 0.422,0.164 0.633,0.164 0.234,0 0.446,-0.07 0.657,-0.188 0.234,-0.117 0.398,-0.281 0.539,-0.47 0.07,-0.093 0.141,-0.233 0.211,-0.375" /><path
           id="path74"
           style="fill:#5c5f63;fill-opacity:1;fill-rule:nonzero;stroke:none"
           d="m 84.024,41.16 h 1.829 v 1.642 h -1.829 v 3.776 H 82.265 V 42.802 H 81.21 V 41.16 h 1.055 V 32.6 h 1.759" /><path
           id="path76"
           style="fill:#5c5f63;fill-opacity:1;fill-rule:nonzero;stroke:none"
           d="M 89.565,42.942 V 32.6 h 1.759 v 5.394 c 0,0.516 0.024,0.984 0.094,1.431 0.023,0.422 0.14,0.774 0.305,1.078 0.164,0.282 0.398,0.516 0.727,0.704 0.258,0.117 0.516,0.211 0.797,0.211 0.282,0.024 0.516,-0.024 0.727,-0.094 0.094,-0.047 0.235,-0.141 0.399,-0.258 l 0.844,1.595 c -0.211,0.117 -0.399,0.211 -0.516,0.258 -0.281,0.117 -0.61,0.164 -0.961,0.188 -0.352,0 -0.704,-0.047 -1.009,-0.141 -0.211,-0.094 -0.399,-0.211 -0.586,-0.352 -0.164,-0.141 -0.329,-0.281 -0.469,-0.446 -0.094,-0.117 -0.211,-0.258 -0.352,-0.422 v 1.196" /><path
           id="path78"
           style="fill:#5c5f63;fill-opacity:1;fill-rule:nonzero;stroke:none"
           d="m 99.224,42.849 h -1.759 v -6.168 c 0,-0.61 0.047,-1.15 0.141,-1.595 0.117,-0.539 0.399,-1.055 0.797,-1.501 0.375,-0.422 0.844,-0.751 1.384,-0.961 0.539,-0.189 1.148,-0.305 1.759,-0.305 0.633,0 1.219,0.116 1.735,0.305 0.54,0.21 1.009,0.539 1.406,0.961 0.4,0.446 0.658,0.962 0.775,1.501 0.094,0.445 0.141,0.985 0.141,1.595 v 6.168 h -1.759 v -5.98 c 0,-0.353 0,-0.657 -0.047,-0.962 -0.023,-0.352 -0.117,-0.68 -0.258,-0.962 -0.164,-0.328 -0.469,-0.61 -0.844,-0.797 -0.352,-0.164 -0.75,-0.258 -1.149,-0.258 -0.422,0 -0.798,0.094 -1.149,0.258 -0.377,0.164 -0.657,0.445 -0.845,0.797 -0.164,0.258 -0.234,0.586 -0.282,0.962 -0.023,0.305 -0.046,0.609 -0.046,0.961" /><path
           id="path80"
           style="fill:#5c5f63;fill-opacity:1;fill-rule:nonzero;stroke:none"
           d="M 110.265,42.849 V 32.6 h 1.759 v 5.582 c 0,0.398 0.024,0.82 0.094,1.196 0.047,0.398 0.14,0.726 0.281,1.032 0.188,0.351 0.493,0.633 0.868,0.844 0.328,0.188 0.68,0.258 1.032,0.258 0.328,0 0.656,-0.094 0.915,-0.258 0.281,-0.188 0.492,-0.446 0.633,-0.751 0.14,-0.281 0.211,-0.586 0.258,-0.938 0.023,-0.281 0.047,-0.587 0.047,-0.891 V 32.6 h 1.759 v 5.699 c -0.001,0.422 0.023,0.821 0.093,1.196 0.047,0.375 0.165,0.727 0.329,1.032 0.187,0.327 0.445,0.586 0.797,0.75 0.281,0.165 0.61,0.235 0.985,0.235 0.281,0 0.563,-0.047 0.797,-0.164 0.305,-0.119 0.54,-0.352 0.704,-0.633 0.164,-0.258 0.258,-0.587 0.305,-0.915 0.023,-0.305 0.047,-0.633 0.047,-0.985 V 32.6 h 1.759 v 6.496 c 0,0.399 -0.024,0.798 -0.071,1.149 -0.07,0.54 -0.234,1.032 -0.492,1.478 -0.282,0.445 -0.727,0.821 -1.268,1.055 -0.491,0.235 -1.03,0.329 -1.593,0.329 -0.54,-0.024 -1.079,-0.141 -1.572,-0.377 -0.469,-0.233 -0.867,-0.562 -1.149,-0.961 -0.047,-0.069 -0.117,-0.187 -0.211,-0.327 -0.047,0.117 -0.094,0.187 -0.141,0.258 -0.258,0.422 -0.633,0.75 -1.102,1.008 -0.445,0.234 -0.938,0.375 -1.454,0.399 -0.539,0.023 -1.079,-0.094 -1.548,-0.352 -0.305,-0.141 -0.564,-0.352 -0.774,-0.611 -0.094,-0.093 -0.211,-0.234 -0.328,-0.398 v 1.102" /><path
           id="path82"
           style="fill:#5c5f63;fill-opacity:1;fill-rule:nonzero;stroke:none"
           d="m 137.982,37.361 c 0,0.234 0,0.398 0,0.516 -0.024,0.469 -0.071,0.938 -0.164,1.383 -0.164,0.751 -0.469,1.431 -0.845,1.969 -0.445,0.588 -1.055,1.08 -1.735,1.409 -0.657,0.304 -1.385,0.469 -2.135,0.469 -0.984,0 -1.922,-0.258 -2.673,-0.727 -0.774,-0.493 -1.407,-1.22 -1.782,-2.064 -0.352,-0.798 -0.516,-1.665 -0.54,-2.58 0,-0.961 0.188,-1.876 0.54,-2.673 0.398,-0.868 1.055,-1.595 1.9,-2.088 0.75,-0.422 1.642,-0.656 2.579,-0.656 0.68,0 1.337,0.116 1.97,0.328 0.563,0.211 1.079,0.516 1.525,0.915 0.375,0.328 0.703,0.703 0.961,1.149 0.094,0.14 0.188,0.305 0.305,0.492 l -1.501,0.845 c -0.094,-0.188 -0.188,-0.352 -0.282,-0.47 -0.211,-0.328 -0.445,-0.609 -0.679,-0.844 -0.305,-0.281 -0.681,-0.516 -1.103,-0.657 -0.375,-0.14 -0.774,-0.211 -1.172,-0.187 -0.563,0 -1.103,0.164 -1.572,0.445 -0.469,0.282 -0.891,0.728 -1.172,1.243 -0.235,0.446 -0.376,0.938 -0.422,1.455 0,0.093 0,0.187 -0.024,0.328 z m -1.853,1.477 h -6.051 c 0.024,0.118 0.047,0.188 0.047,0.235 0.071,0.375 0.235,0.727 0.469,1.079 0.282,0.422 0.681,0.773 1.103,1.008 0.445,0.234 0.938,0.352 1.406,0.352 0.47,0 0.939,-0.118 1.361,-0.329 0.422,-0.211 0.774,-0.515 1.055,-0.891 0.282,-0.375 0.469,-0.774 0.563,-1.243 0,-0.047 0.023,-0.117 0.047,-0.211" /><path
           id="path84"
           style="fill:#5c5f63;fill-opacity:1;fill-rule:nonzero;stroke:none"
           d="M 141.965,42.849 V 32.6 h 1.759 v 5.113 c 0,0.492 0.023,0.938 0.07,1.36 0.047,0.422 0.164,0.844 0.352,1.219 0.211,0.446 0.563,0.774 0.985,0.985 0.375,0.188 0.821,0.258 1.29,0.235 0.328,0 0.633,-0.094 0.938,-0.211 0.305,-0.141 0.563,-0.352 0.751,-0.633 0.14,-0.258 0.258,-0.587 0.281,-0.962 0.024,-0.305 0.047,-0.657 0.047,-1.055 V 32.6 h 1.759 v 6.356 c 0,0.445 -0.024,0.844 -0.071,1.243 -0.07,0.562 -0.234,1.078 -0.515,1.501 -0.282,0.444 -0.751,0.819 -1.314,1.055 -0.492,0.234 -1.055,0.352 -1.595,0.352 -0.609,0 -1.196,-0.141 -1.688,-0.377 -0.352,-0.163 -0.68,-0.421 -0.962,-0.726 -0.094,-0.117 -0.211,-0.235 -0.328,-0.399 v 1.244" /><path
           id="path86"
           style="fill:#5c5f63;fill-opacity:1;fill-rule:nonzero;stroke:none"
           d="m 156.924,41.16 h 1.829 v 1.642 h -1.829 v 3.776 h -1.759 V 42.802 H 154.11 V 41.16 h 1.055 V 32.6 h 1.759" /><path
           id="path88"
           style="fill:#5c5f63;fill-opacity:1;fill-rule:nonzero;stroke:none"
           d="m 167.441,41.229 c -0.141,0.259 -0.235,0.447 -0.305,0.564 -0.283,0.375 -0.633,0.704 -1.079,0.937 -0.422,0.236 -0.891,0.353 -1.384,0.377 -0.539,0 -1.102,-0.141 -1.595,-0.399 -0.469,-0.258 -0.844,-0.61 -1.078,-1.032 -0.235,-0.375 -0.352,-0.822 -0.376,-1.313 -0.023,-0.423 0.047,-0.821 0.187,-1.173 0.165,-0.352 0.4,-0.68 0.728,-0.891 0.281,-0.211 0.61,-0.399 1.032,-0.609 0.352,-0.165 0.704,-0.329 1.031,-0.47 0.375,-0.164 0.681,-0.305 0.939,-0.445 0.234,-0.141 0.445,-0.352 0.586,-0.61 0.071,-0.141 0.141,-0.352 0.141,-0.587 0.023,-0.281 -0.047,-0.562 -0.165,-0.797 -0.14,-0.281 -0.351,-0.516 -0.609,-0.657 -0.258,-0.164 -0.563,-0.234 -0.892,-0.234 -0.304,-0.024 -0.609,0.047 -0.867,0.164 -0.281,0.141 -0.516,0.328 -0.704,0.586 -0.14,0.165 -0.258,0.352 -0.351,0.563 -0.071,0.094 -0.117,0.211 -0.188,0.352 l -1.548,-0.657 c 0.071,-0.164 0.141,-0.328 0.188,-0.445 0.188,-0.399 0.422,-0.751 0.727,-1.056 0.352,-0.351 0.774,-0.633 1.243,-0.797 0.469,-0.188 0.961,-0.281 1.477,-0.281 0.634,0 1.243,0.164 1.783,0.445 0.539,0.305 0.985,0.751 1.29,1.267 0.258,0.469 0.398,1.032 0.398,1.618 0,0.445 -0.07,0.867 -0.234,1.219 -0.211,0.422 -0.516,0.774 -0.891,1.056 -0.305,0.211 -0.657,0.398 -1.032,0.586 -0.258,0.117 -0.563,0.258 -0.916,0.399 -0.375,0.164 -0.702,0.305 -0.984,0.469 -0.235,0.117 -0.422,0.281 -0.539,0.469 -0.094,0.14 -0.141,0.328 -0.141,0.539 0,0.188 0.047,0.352 0.117,0.493 0.118,0.187 0.282,0.375 0.493,0.469 0.211,0.117 0.422,0.164 0.633,0.164 0.234,0 0.445,-0.07 0.657,-0.188 0.234,-0.117 0.398,-0.281 0.539,-0.47 0.07,-0.093 0.141,-0.233 0.211,-0.375" /><path
           id="path90"
           style="fill:#5c5f63;fill-opacity:1;fill-rule:nonzero;stroke:none"
           d="m 164.7,7.1 h 0.526 l 0.468,2.445 1.377,-2.445 h 0.64 l -1.414,2.522 2.103,2.078 h -0.574 l -2.103,-2.097 -0.019,0.019 0.803,4.078 h -0.526" /><path
           id="path92"
           style="fill:#5c5f63;fill-opacity:1;fill-rule:nonzero;stroke:none"
           d="m 162.1,7.1 h 0.525 l 0.878,4.6 h -0.526 z m 1,5.8 h 0.742 L 164,13.7 h -0.742 L 163.1,12.9" /><path
           id="path94"
           style="fill:#5c5f63;fill-opacity:1;fill-rule:nonzero;stroke:none"
           d="m 156.861,7.1 h 0.528 l 0.403,2.105 c 0.125,0.596 0.787,2.095 1.746,2.095 0.44,0 0.662,-0.25 0.662,-0.634 0,-0.24 -0.048,-0.481 -0.097,-0.721 L 159.557,7.1 h 0.528 l 0.654,3.249 c 0.031,0.144 0.061,0.298 0.061,0.442 0,0.432 -0.254,1.009 -1.08,1.009 -0.93,0 -1.506,-0.923 -1.65,-1.269 l -0.019,0.019 0.22,1.15 h -0.527" /><path
           id="path96"
           style="fill:#5c5f63;fill-opacity:1;fill-rule:nonzero;stroke:none"
           d="m 151.552,7.1 h 0.528 l 0.393,2.057 c 0.105,0.548 0.642,2.143 1.755,2.143 0.441,0 0.672,-0.278 0.672,-0.673 0,-0.25 -0.067,-0.49 -0.115,-0.73 L 154.238,7.1 h 0.528 l 0.669,3.181 c 0.043,0.164 0.065,0.337 0.065,0.5 0,0.5 -0.332,1.019 -1.023,1.019 -1.054,0 -1.553,-0.913 -1.717,-1.25 l -0.019,0.02 0.624,3.13 h -0.528" /><path
           id="path98"
           style="fill:#5c5f63;fill-opacity:1;fill-rule:nonzero;stroke:none"
           d="M 150.13,7.495 C 149.899,7.438 149.658,7.4 149.427,7.4 c -0.914,0 -1.527,0.57 -1.527,1.558 0,0.884 0.362,2.442 1.557,2.442 0.521,0 0.743,-0.409 0.743,-0.703 0,-0.132 -0.01,-0.257 -0.03,-0.39 h 0.612 c 0.009,0.124 0.018,0.247 0.018,0.38 0,0.637 -0.406,1.113 -1.213,1.113 -1.527,0 -2.287,-1.464 -2.287,-3.003 0,-1.064 0.64,-1.797 1.856,-1.797 0.301,0 0.592,0.03 0.854,0.09 l 0.08,0.405" /><path
           id="path100"
           style="fill:#5c5f63;fill-opacity:1;fill-rule:nonzero;stroke:none"
           d="M 145.42,7.507 C 145.161,7.449 144.903,7.4 144.645,7.4 c -0.766,0 -1.345,0.622 -1.345,1.64 0,0.32 0.053,0.64 0.116,0.96 h 2.631 c 0.021,0.166 0.053,0.342 0.053,0.498 0,0.696 -0.525,1.302 -1.375,1.302 -1.39,0 -2.025,-1.615 -2.025,-2.974 0,-1.223 0.769,-1.826 1.767,-1.826 0.294,0 0.597,0.05 0.848,0.1 l 0.071,0.407 z m -1.915,2.893 c 0.097,0.321 0.356,1 1.158,1 0.677,0 0.837,-0.491 0.837,-0.777 0,-0.071 0,-0.152 -0.009,-0.223 h -1.986" /><path
           id="path102"
           style="fill:#5c5f63;fill-opacity:1;fill-rule:nonzero;stroke:none"
           d="M 14.608,13.652 C 14.349,13.713 13.906,13.8 13.303,13.8 12.018,13.8 10.9,13.276 10.9,11.982 10.9,10.249 13.5,10.383 13.5,8.985 13.5,8.046 12.671,7.5 11.645,7.5 11.129,7.5 10.497,7.72 10.18,7.864 L 10.036,7.172 C 10.161,7.15 10.814,7 11.474,7 c 1.664,0 2.627,0.902 2.627,2.033 -0.001,1.925 -2.601,1.743 -2.601,3.17 0,0.814 0.653,1.197 1.534,1.197 0.722,0 1.095,-0.22 1.44,-0.383" /><path
           id="path104"
           style="fill:#5c5f63;fill-opacity:1;fill-rule:nonzero;stroke:none"
           d="M 16.935,7 C 18.671,7 19.3,8.701 19.3,10.175 19.3,11.208 18.613,11.8 17.755,11.8 15.99,11.8 15.4,10.185 15.4,8.634 15.4,7.639 15.941,7 16.935,7 Z M 16,8.749 c 0,1.148 0.511,2.651 1.707,2.651 0.742,0 0.993,-0.584 0.993,-1.301 C 18.7,9.103 18.324,7.4 16.993,7.4 16.357,7.4 16,8.003 16,8.749" /><path
           id="path106"
           style="fill:#5c5f63;fill-opacity:1;fill-rule:nonzero;stroke:none"
           d="m 20.8,7.1 h 0.523 l 0.808,4.2 h 1.281 l 0.076,0.4 h -1.286 l 0.096,0.506 c 0.109,0.506 0.233,1.094 0.918,1.094 0.418,0 0.589,-0.064 0.786,-0.156 l 0.095,0.456 c -0.045,0.01 -0.434,0.1 -0.71,0.1 -1.275,0 -1.474,-0.869 -1.56,-1.274 L 21.684,11.7 h -0.796 l -0.076,-0.4 h 0.796" /><path
           id="path108"
           style="fill:#5c5f63;fill-opacity:1;fill-rule:nonzero;stroke:none"
           d="M 26.113,7.458 C 25.979,7.419 25.816,7.4 25.662,7.4 25.221,7.4 25,7.592 25,7.976 c 0,0.317 0.105,0.75 0.173,1.105 l 0.441,2.219 h 1.198 l 0.076,0.4 H 25.7 l 0.279,1.391 -0.586,-0.326 -0.22,-1.065 h -0.78 l -0.086,-0.4 h 0.78 L 24.462,8.418 C 24.421,8.245 24.4,8.063 24.4,7.89 24.4,7.06 25.173,7 25.556,7 c 0.164,0 0.317,0.02 0.451,0.03 l 0.086,0.428" /><path
           id="path110"
           style="fill:#5c5f63;fill-opacity:1;fill-rule:nonzero;stroke:none"
           d="m 28.185,7.1 h 0.513 l 1.805,3.8 h 0.019 L 30.94,7.1 h 0.503 L 33.4,11.7 H 32.934 L 31.32,7.9 h -0.019 l -0.428,3.8 h -0.38 L 28.688,7.9 h -0.019 l -0.237,3.8 H 27.9" /><path
           id="path112"
           style="fill:#5c5f63;fill-opacity:1;fill-rule:nonzero;stroke:none"
           d="m 36.828,7.1 h 0.528 l 0.892,4.6 H 37.72 l -0.182,-0.96 h -0.019 c -0.077,0.287 -0.259,1.06 -1.19,1.06 -1.41,0 -2.03,-1.883 -2.03,-3.213 0,-0.804 0.384,-1.587 1.32,-1.587 0.835,0 1.229,0.658 1.353,0.984 L 36.992,7.965 36.828,7.11 Z M 34.9,8.634 c 0,1.052 0.48,2.766 1.429,2.766 0.748,0 0.959,-0.88 0.959,-1.531 0,-1.013 -0.595,-2.469 -1.564,-2.469 -0.624,0 -0.825,0.622 -0.825,1.234" /><path
           id="path114"
           style="fill:#5c5f63;fill-opacity:1;fill-rule:nonzero;stroke:none"
           d="m 39.4,7.1 h 0.518 l 0.415,2.173 c 0.132,0.679 0.5,1.827 1.377,1.827 0.113,0 0.245,-0.01 0.367,-0.01 L 42.2,11.8 c -0.886,-0.01 -1.301,-0.527 -1.584,-1.15 l -0.019,0.02 0.189,1.03 h -0.519" /><path
           id="path116"
           style="fill:#5c5f63;fill-opacity:1;fill-rule:nonzero;stroke:none"
           d="M 45.52,7.507 C 45.262,7.449 45.003,7.4 44.745,7.4 43.979,7.4 43.4,8.022 43.4,9.04 c 0,0.32 0.053,0.64 0.116,0.96 h 2.631 c 0.021,0.166 0.053,0.342 0.053,0.498 0,0.696 -0.525,1.302 -1.375,1.302 C 43.435,11.8 42.8,10.185 42.8,8.826 42.8,7.603 43.569,7 44.567,7 c 0.294,0 0.597,0.05 0.847,0.1 l 0.072,0.407 z M 43.605,10.4 c 0.098,0.321 0.356,1 1.158,1 0.677,0 0.837,-0.491 0.837,-0.777 0,-0.071 0,-0.152 -0.009,-0.223 h -1.986" /><path
           id="path118"
           style="fill:#5c5f63;fill-opacity:1;fill-rule:nonzero;stroke:none"
           d="m 50.2,7.1 h 0.523 l 0.808,4.2 h 1.281 l 0.076,0.4 h -1.286 l 0.096,0.506 c 0.109,0.506 0.233,1.094 0.918,1.094 0.418,0 0.589,-0.064 0.786,-0.156 l 0.096,0.456 c -0.046,0.01 -0.435,0.1 -0.711,0.1 -1.275,0 -1.474,-0.869 -1.56,-1.274 L 51.084,11.7 h -0.796 l -0.076,-0.4 h 0.796" /><path
           id="path120"
           style="fill:#5c5f63;fill-opacity:1;fill-rule:nonzero;stroke:none"
           d="m 54.764,12.6 h 0.75 l 0.15,0.7 h -0.74 z m 1.599,0 h 0.665 l 0.136,0.7 H 56.499 Z M 56.119,7.1 h 0.528 l 0.882,4.6 H 57.001 L 56.589,9.595 C 56.464,8.999 55.869,7.5 54.891,7.5 54.488,7.5 54.2,7.817 54.2,8.298 c 0,0.105 0.048,0.355 0.077,0.528 L 54.833,11.7 H 54.305 L 53.698,8.826 C 53.654,8.595 53.6,8.365 53.6,8.125 53.6,7.654 53.862,7 54.699,7 55.754,7 56.186,7.913 56.32,8.269 L 56.34,8.25 56.119,7.11 V 7.1" /><path
           id="path122"
           style="fill:#5c5f63;fill-opacity:1;fill-rule:nonzero;stroke:none"
           d="m 58.6,7.1 h 0.519 l 0.414,2.173 c 0.132,0.679 0.5,1.827 1.377,1.827 0.113,0 0.245,-0.01 0.367,-0.01 L 61.4,11.8 c -0.886,-0.01 -1.301,-0.527 -1.584,-1.15 l -0.019,0.02 0.189,1.03 h -0.519" /><path
           id="path124"
           style="fill:#5c5f63;fill-opacity:1;fill-rule:nonzero;stroke:none"
           d="m 65.242,7.1 h 0.816 l 2.6,6 h 0.019 l 0.346,-6 h 0.806 l 2.456,6.6 H 71.7 L 69.57,7.8 h -0.019 l -0.365,5.9 h -0.72 l -2.6,-5.9 -0.019,0.019 0.106,5.881 h -0.595" /><path
           id="path126"
           style="fill:#5c5f63;fill-opacity:1;fill-rule:nonzero;stroke:none"
           d="m 72.7,7.1 h 0.525 l 0.879,4.6 h -0.525 z m 1,5.8 h 0.742 L 74.6,13.7 H 73.858 L 73.7,12.9" /><path
           id="path128"
           style="fill:#5c5f63;fill-opacity:1;fill-rule:nonzero;stroke:none"
           d="m 78.307,11.63 c -0.163,0.04 -0.582,0.17 -1.114,0.17 -1.154,0 -1.793,-0.505 -1.793,-1.309 0,-1.311 2,-1.091 2,-2.125 C 77.4,7.715 76.838,7.399 76.118,7.399 75.459,7.4 75.016,7.716 74.863,7.811 L 74.748,7.212 C 74.949,7.15 75.371,7 76.069,7 77.361,7 78,7.735 78,8.539 c 0,1.378 -2,1.234 -2,2.095 0,0.45 0.365,0.766 0.986,0.766 0.63,0 1.033,-0.249 1.196,-0.344" /><path
           id="path130"
           style="fill:#5c5f63;fill-opacity:1;fill-rule:nonzero;stroke:none"
           d="m 82.307,11.63 c -0.163,0.04 -0.582,0.17 -1.114,0.17 -1.154,0 -1.793,-0.505 -1.793,-1.309 0,-1.311 2,-1.091 2,-2.125 C 81.4,7.715 80.838,7.399 80.118,7.399 79.459,7.4 79.016,7.716 78.863,7.811 L 78.748,7.212 C 78.949,7.15 79.371,7 80.069,7 81.361,7 82,7.735 82,8.539 c 0,1.378 -2,1.234 -2,2.095 0,0.45 0.365,0.766 0.986,0.766 0.63,0 1.033,-0.249 1.196,-0.344" /><path
           id="path132"
           style="fill:#5c5f63;fill-opacity:1;fill-rule:nonzero;stroke:none"
           d="M 86.02,7.507 C 85.761,7.449 85.503,7.4 85.245,7.4 84.479,7.4 83.9,8.022 83.9,9.04 c 0,0.32 0.053,0.64 0.116,0.96 h 2.631 c 0.021,0.166 0.053,0.342 0.053,0.498 0,0.696 -0.525,1.302 -1.375,1.302 C 83.935,11.8 83.3,10.185 83.3,8.826 83.3,7.603 84.069,7 85.067,7 c 0.294,0 0.597,0.05 0.847,0.1 l 0.072,0.407 z M 84.105,10.4 c 0.098,0.321 0.356,1 1.158,1 0.677,0 0.837,-0.491 0.837,-0.777 0,-0.071 0,-0.152 -0.009,-0.223 h -1.986" /><path
           id="path134"
           style="fill:#5c5f63;fill-opacity:1;fill-rule:nonzero;stroke:none"
           d="m 87.761,7.1 h 0.528 l 0.403,2.105 c 0.125,0.596 0.786,2.095 1.745,2.095 0.442,0 0.663,-0.25 0.663,-0.634 0,-0.24 -0.048,-0.481 -0.096,-0.721 L 90.457,7.1 h 0.528 l 0.654,3.249 c 0.031,0.144 0.061,0.298 0.061,0.442 0,0.432 -0.254,1.009 -1.08,1.009 -0.93,0 -1.506,-0.923 -1.65,-1.269 l -0.019,0.019 0.221,1.15 h -0.528" /><path
           id="path136"
           style="fill:#5c5f63;fill-opacity:1;fill-rule:nonzero;stroke:none"
           d="m 96.107,11.63 c -0.163,0.04 -0.582,0.17 -1.114,0.17 -1.154,0 -1.793,-0.505 -1.793,-1.309 0,-1.311 2,-1.091 2,-2.125 C 95.2,7.715 94.638,7.399 93.918,7.399 93.259,7.4 92.816,7.716 92.663,7.811 L 92.548,7.212 C 92.749,7.15 93.171,7 93.869,7 95.161,7 95.8,7.735 95.8,8.539 c 0,1.378 -2,1.234 -2,2.095 0,0.45 0.365,0.766 0.986,0.766 0.63,0 1.033,-0.249 1.196,-0.344" /><path
           id="path138"
           style="fill:#5c5f63;fill-opacity:1;fill-rule:nonzero;stroke:none"
           d="M 99.93,7.495 C 99.699,7.438 99.458,7.4 99.227,7.4 98.312,7.4 97.7,7.97 97.7,8.958 c 0,0.884 0.362,2.442 1.557,2.442 0.522,0 0.743,-0.409 0.743,-0.703 0,-0.132 -0.01,-0.257 -0.03,-0.39 h 0.612 c 0.009,0.124 0.018,0.247 0.018,0.38 0,0.637 -0.406,1.113 -1.213,1.113 C 97.86,11.8 97.1,10.336 97.1,8.797 97.1,7.733 97.74,7 98.956,7 c 0.301,0 0.592,0.03 0.854,0.09 l 0.08,0.405" /><path
           id="path140"
           style="fill:#5c5f63;fill-opacity:1;fill-rule:nonzero;stroke:none"
           d="m 101.352,7.1 h 0.528 l 0.393,2.057 c 0.105,0.548 0.642,2.143 1.755,2.143 0.441,0 0.672,-0.278 0.672,-0.673 0,-0.25 -0.067,-0.49 -0.115,-0.73 L 104.038,7.1 h 0.528 l 0.67,3.181 c 0.043,0.164 0.064,0.337 0.064,0.5 0,0.5 -0.332,1.019 -1.022,1.019 -1.055,0 -1.554,-0.913 -1.718,-1.25 l -0.019,0.02 0.624,3.13 h -0.528" /><path
           id="path142"
           style="fill:#5c5f63;fill-opacity:1;fill-rule:nonzero;stroke:none"
           d="m 109.228,7.1 h 0.528 l 0.892,4.6 h -0.528 l -0.183,-0.96 h -0.018 c -0.077,0.287 -0.259,1.06 -1.191,1.06 -1.409,0 -2.029,-1.883 -2.029,-3.213 0,-0.804 0.384,-1.587 1.32,-1.587 0.834,0 1.229,0.658 1.353,0.984 l 0.02,-0.019 -0.164,-0.855 z M 107.3,8.634 c 0,1.052 0.48,2.766 1.428,2.766 0.749,0 0.96,-0.88 0.96,-1.531 0,-1.013 -0.595,-2.469 -1.564,-2.469 -0.624,0 -0.825,0.622 -0.825,1.234" /><path
           id="path144"
           style="fill:#5c5f63;fill-opacity:1;fill-rule:nonzero;stroke:none"
           d="m 112,7.1 h 0.523 l 0.808,4.2 h 1.281 l 0.076,0.4 h -1.286 l 0.095,0.506 c 0.11,0.506 0.234,1.094 0.919,1.094 0.418,0 0.589,-0.064 0.786,-0.156 l 0.096,0.456 c -0.045,0.01 -0.435,0.1 -0.711,0.1 -1.276,0 -1.474,-0.869 -1.56,-1.274 L 112.884,11.7 h -0.796 l -0.076,-0.4 h 0.796" /><path
           id="path146"
           style="fill:#5c5f63;fill-opacity:1;fill-rule:nonzero;stroke:none"
           d="M 117.313,7.458 C 117.179,7.419 117.016,7.4 116.862,7.4 c -0.441,0 -0.662,0.192 -0.662,0.576 0,0.317 0.105,0.75 0.173,1.105 l 0.442,2.219 h 1.197 l 0.076,0.4 H 116.9 l 0.279,1.391 -0.586,-0.326 -0.22,-1.065 h -0.78 l -0.086,-0.4 h 0.78 L 115.662,8.418 C 115.621,8.245 115.6,8.063 115.6,7.89 115.6,7.06 116.373,7 116.757,7 c 0.163,0 0.316,0.02 0.45,0.03 l 0.086,0.428" /><path
           id="path148"
           style="fill:#5c5f63;fill-opacity:1;fill-rule:nonzero;stroke:none"
           d="m 123.919,7.1 h 0.528 l 0.882,4.6 h -0.528 L 124.389,9.595 C 124.264,8.999 123.669,7.5 122.691,7.5 122.288,7.5 122,7.817 122,8.298 c 0,0.105 0.048,0.355 0.077,0.528 l 0.556,2.874 h -0.528 L 121.498,8.826 C 121.454,8.595 121.4,8.365 121.4,8.125 121.4,7.654 121.662,7 122.499,7 c 1.055,0 1.487,0.913 1.621,1.269 l 0.02,-0.019 -0.221,-1.14" /><path
           id="path150"
           style="fill:#5c5f63;fill-opacity:1;fill-rule:nonzero;stroke:none"
           d="m 126.461,7.1 h 0.528 l 0.403,2.105 c 0.125,0.596 0.787,2.095 1.746,2.095 0.441,0 0.662,-0.25 0.662,-0.634 0,-0.24 -0.048,-0.481 -0.096,-0.721 L 129.157,7.1 h 0.528 l 0.654,3.249 c 0.031,0.144 0.061,0.298 0.061,0.442 0,0.432 -0.254,1.009 -1.08,1.009 -0.93,0 -1.506,-0.923 -1.65,-1.269 l -0.019,0.019 0.221,1.15 h -0.528" /><path
           id="path152"
           style="fill:#5c5f63;fill-opacity:1;fill-rule:nonzero;stroke:none"
           d="m 134.138,7.1 h 0.528 l 1.285,6.6 h -0.528 l -0.565,-2.96 h -0.019 c -0.077,0.287 -0.269,1.06 -1.209,1.06 -1.41,0 -2.029,-1.883 -2.029,-3.213 0,-0.804 0.384,-1.587 1.32,-1.587 0.843,0 1.236,0.658 1.361,0.984 L 134.301,7.965 134.138,7.11 Z M 132.2,8.634 c 0,1.052 0.48,2.766 1.429,2.766 0.748,0 0.959,-0.88 0.959,-1.531 0,-1.013 -0.595,-2.469 -1.564,-2.469 -0.624,0 -0.825,0.622 -0.825,1.234" /><path
           id="path154"
           style="fill:#5c5f63;fill-opacity:1;fill-rule:nonzero;stroke:none"
           d="m 140.073,7.1 h 0.584 l 1.196,6.2 h 1.554 l 0.086,0.4 h -3.7 l -0.086,-0.4 h 1.553" /></g></g></g></svg>
