<?xml version="1.0" encoding="UTF-8" standalone="no"?>
<!-- Generator: Adobe Illustrator 25.2.1, SVG Export Plug-In . SVG Version: 6.00 Build 0)  -->

<svg
   version="1.1"
   id="Layer_1"
   x="0px"
   y="0px"
   viewBox="0 0 2500.1001 533.79999"
   xml:space="preserve"
   sodipodi:docname="microsoft.svg"
   width="2500.1001"
   height="533.79999"
   inkscape:version="1.1 (c4e8f9e, 2021-05-24)"
   xmlns:inkscape="http://www.inkscape.org/namespaces/inkscape"
   xmlns:sodipodi="http://sodipodi.sourceforge.net/DTD/sodipodi-0.dtd"
   xmlns="http://www.w3.org/2000/svg"
   xmlns:svg="http://www.w3.org/2000/svg"><defs
   id="defs17" /><sodipodi:namedview
   id="namedview15"
   pagecolor="#ffffff"
   bordercolor="#666666"
   borderopacity="1.0"
   inkscape:pageshadow="2"
   inkscape:pageopacity="0.0"
   inkscape:pagecheckerboard="0"
   showgrid="false"
   inkscape:zoom="0.4508"
   inkscape:cx="1251.1091"
   inkscape:cy="267.30257"
   inkscape:window-width="1296"
   inkscape:window-height="1003"
   inkscape:window-x="207"
   inkscape:window-y="38"
   inkscape:window-maximized="0"
   inkscape:current-layer="Layer_1" />
<style
   type="text/css"
   id="style2">
	.st0{fill:#CED4DA;}
</style>
<path
   class="st0"
   d="m 2500,241.5 v -44 h -54.6 v -68.4 l -1.8,0.6 -51.3,15.7 -1,0.3 v 51.8 h -80.9 v -28.9 c 0,-13.4 3,-23.7 8.9,-30.6 5.9,-6.8 14.3,-10.2 25,-10.2 7.7,0 15.7,1.8 23.7,5.4 l 2,0.9 V 87.9 l -0.9,-0.3 c -7.5,-2.7 -17.7,-4.1 -30.3,-4.1 -15.9,0 -30.4,3.5 -43,10.3 -12.6,6.9 -22.6,16.7 -29.5,29.2 -6.9,12.5 -10.5,26.9 -10.5,42.8 v 31.7 h -38 v 44 h 38 v 185.2 h 54.6 V 241.5 h 80.9 v 117.7 c 0,48.5 22.9,73 68,73 7.4,0 15.2,-0.9 23.2,-2.6 8.1,-1.7 13.6,-3.5 16.9,-5.4 l 0.7,-0.4 v -44.4 l -2.2,1.5 c -3,2 -6.7,3.6 -11,4.8 -4.3,1.2 -8,1.8 -10.8,1.8 -10.6,0 -18.4,-2.8 -23.2,-8.5 -4.9,-5.7 -7.4,-15.6 -7.4,-29.4 V 241.5 Z m -404.1,146.1 c -19.8,0 -35.4,-6.6 -46.4,-19.5 -11.1,-13 -16.7,-31.5 -16.7,-55.1 0,-24.3 5.6,-43.3 16.7,-56.6 11,-13.1 26.5,-19.8 46,-19.8 18.9,0 34,6.4 44.8,19 10.8,12.6 16.3,31.5 16.3,56.1 0,24.9 -5.2,44 -15.4,56.8 -10.2,12.7 -25.4,19.1 -45.3,19.1 m 2.4,-195.6 c -37.8,0 -67.8,11.1 -89.2,32.9 -21.4,21.8 -32.2,52.1 -32.2,89.9 0,35.9 10.6,64.7 31.5,85.8 20.9,21 49.3,31.7 84.5,31.7 36.6,0 66.1,-11.2 87.4,-33.4 21.4,-22.1 32.2,-52.1 32.2,-89 0,-36.4 -10.2,-65.5 -30.2,-86.4 -20.2,-20.9 -48.4,-31.5 -84,-31.5 m -209.5,0 c -25.7,0 -47,6.6 -63.2,19.5 -16.3,13 -24.6,30.1 -24.6,50.8 0,10.8 1.8,20.3 5.3,28.4 3.5,8.1 9,15.3 16.3,21.3 7.2,6 18.4,12.2 33.2,18.6 12.4,5.1 21.7,9.4 27.6,12.9 5.8,3.3 9.8,6.7 12.1,10 2.2,3.2 3.4,7.6 3.4,13 0,15.4 -11.5,22.9 -35.3,22.9 -8.8,0 -18.8,-1.8 -29.8,-5.5 -10.9,-3.6 -21.2,-8.8 -30.6,-15.5 l -2.3,-1.6 v 52.5 l 0.8,0.4 c 7.7,3.6 17.5,6.6 28.9,8.9 11.5,2.4 21.9,3.6 30.9,3.6 27.9,0 50.4,-6.6 66.8,-19.6 16.5,-13.1 24.9,-30.6 24.9,-52.1 0,-15.4 -4.5,-28.7 -13.4,-39.4 -8.8,-10.6 -24.1,-20.3 -45.4,-28.9 -17,-6.8 -27.9,-12.5 -32.4,-16.8 -4.3,-4.2 -6.5,-10.1 -6.5,-17.7 0,-6.7 2.7,-12 8.3,-16.3 5.6,-4.3 13.4,-6.6 23.2,-6.6 9.1,0 18.4,1.4 27.6,4.3 9.2,2.8 17.4,6.6 24.1,11.2 l 2.2,1.5 V 202 l -0.9,-0.4 c -6.3,-2.7 -14.5,-5 -24.5,-6.8 -9.7,-1.9 -18.8,-2.8 -26.7,-2.8 m -230.1,195.6 c -19.8,0 -35.4,-6.6 -46.4,-19.5 -11.1,-13 -16.7,-31.5 -16.7,-55.1 0,-24.3 5.6,-43.3 16.7,-56.6 11,-13.1 26.5,-19.8 46,-19.8 18.9,0 34,6.4 44.8,19 10.8,12.6 16.3,31.5 16.3,56.1 0,24.9 -5.2,44 -15.4,56.8 -10.1,12.7 -25.3,19.1 -45.3,19.1 m 2.5,-195.6 c -37.8,0 -67.8,11.1 -89.2,32.9 -21.4,21.8 -32.2,52.1 -32.2,89.9 0,35.9 10.6,64.7 31.5,85.8 20.9,21 49.3,31.7 84.5,31.7 36.6,0 66.1,-11.2 87.4,-33.4 21.4,-22.1 32.2,-52.1 32.2,-89 0,-36.4 -10.2,-65.5 -30.2,-86.4 -20.2,-20.9 -48.5,-31.5 -84,-31.5 m -204.3,45.2 V 197.5 H 1403 v 229.2 h 53.9 V 309.5 c 0,-19.9 4.5,-36.3 13.4,-48.7 8.8,-12.2 20.5,-18.4 34.9,-18.4 4.9,0 10.3,0.8 16.2,2.4 5.8,1.6 10.1,3.3 12.6,5.1 l 2.3,1.6 v -54.4 l -0.9,-0.4 c -5,-2.1 -12.1,-3.2 -21.1,-3.2 -13.5,0 -25.7,4.4 -36.1,12.9 -9.1,7.5 -15.7,17.9 -20.7,30.7 h -0.6 z M 1306.4,192 c -24.7,0 -46.8,5.3 -65.6,15.8 -18.8,10.5 -33.3,25.4 -43.2,44.5 -9.9,19 -14.9,41.1 -14.9,65.9 0,21.7 4.8,41.5 14.4,59 9.6,17.5 23.2,31.3 40.3,40.8 17.2,9.5 37,14.3 58.9,14.3 25.6,0 47.5,-5.1 65,-15.2 l 0.7,-0.4 v -49.4 l -2.3,1.7 c -7.9,5.8 -16.8,10.4 -26.4,13.7 -9.5,3.3 -18.2,5 -25.8,5 -21.2,0 -38.1,-6.6 -50.5,-19.7 -12.4,-13.1 -18.6,-31.4 -18.6,-54.5 0,-23.2 6.5,-42.1 19.4,-55.9 12.8,-13.8 29.8,-20.9 50.6,-20.9 17.7,0 35,6 51.3,17.9 l 2.3,1.6 v -52 l -0.7,-0.4 c -6.1,-3.4 -14.5,-6.3 -24.9,-8.4 -10.2,-2.3 -20.4,-3.4 -30,-3.4 m -160.8,5.5 h -53.9 v 229.2 h 53.9 z m -26.4,-97.6 c -8.9,0 -16.6,3 -23,9 -6.4,6 -9.6,13.6 -9.6,22.5 0,8.8 3.2,16.2 9.5,22 6.3,5.8 14,8.8 23.1,8.8 9,0 16.8,-3 23.2,-8.8 6.4,-5.9 9.6,-13.3 9.6,-22.1 0,-8.6 -3.2,-16.1 -9.4,-22.2 -6.2,-6.1 -14,-9.2 -23.4,-9.2 m -134.5,80.7 v 246.1 h 55 V 106.9 H 963.6 L 866.8,344.4 772.9,106.9 h -79.2 v 319.8 h 51.7 V 180.6 h 1.8 l 99.2,246.1 h 39 L 983,180.6 Z"
   id="path4" />
<path
   class="st0"
   d="M 253.6,253.6 H 0 V 0 h 253.6 z"
   id="path6" />
<path
   class="st0"
   d="M 533.6,253.6 H 280 V 0 h 253.6 z"
   id="path8" />
<path
   class="st0"
   d="M 253.6,533.8 H 0 V 280.2 h 253.6 z"
   id="path10" />
<path
   class="st0"
   d="M 533.6,533.8 H 280 V 280.2 h 253.6 z"
   id="path12" />
</svg>
