<?xml version="1.0" encoding="UTF-8" standalone="no"?>
<!-- Generator: Adobe Illustrator 24.0.3, SVG Export Plug-In . SVG Version: 6.00 Build 0)  -->

<svg
   version="1.0"
   id="Layer_1"
   x="0px"
   y="0px"
   width="500"
   height="90.300003"
   viewBox="0 0 499.99999 90.300005"
   xml:space="preserve"
   sodipodi:docname="maxar_gold_logo_rgb.svg"
   inkscape:version="1.1 (c4e8f9e, 2021-05-24)"
   xmlns:inkscape="http://www.inkscape.org/namespaces/inkscape"
   xmlns:sodipodi="http://sodipodi.sourceforge.net/DTD/sodipodi-0.dtd"
   xmlns="http://www.w3.org/2000/svg"
   xmlns:svg="http://www.w3.org/2000/svg"><defs
   id="defs21" /><sodipodi:namedview
   id="namedview19"
   pagecolor="#ffffff"
   bordercolor="#666666"
   borderopacity="1.0"
   inkscape:pageshadow="2"
   inkscape:pageopacity="0.0"
   inkscape:pagecheckerboard="0"
   showgrid="false"
   inkscape:zoom="1.6559405"
   inkscape:cx="250.00899"
   inkscape:cy="44.98954"
   inkscape:window-width="1296"
   inkscape:window-height="1003"
   inkscape:window-x="0"
   inkscape:window-y="25"
   inkscape:window-maximized="0"
   inkscape:current-layer="Layer_1" />
<style
   type="text/css"
   id="style2">
	.st0{fill:#FCAF17;}
</style>
<g
   id="g16"
   transform="translate(-90.29,-90.29)">
	<polygon
   class="st0"
   points="395.7,160.64 325.31,90.29 305.41,90.29 305.41,110.18 330.66,135.41 305.41,160.64 305.41,180.58 325.26,180.58 350.56,155.3 375.86,180.58 395.7,180.58 "
   id="polygon4" />
	<rect
   x="371.73999"
   y="90.290001"
   class="st0"
   width="23.959999"
   height="23.959999"
   id="rect6" />
	<path
   class="st0"
   d="m 472.2,162.47 8.74,18.11 h 18.89 V 160.61 L 468.5,92.43 467.56,90.29 h -25.42 l -0.93,2.13 -31.67,68.19 v 19.97 h 18.54 l 8.68,-18.11 z m -17.51,-47.15 11.41,27.09 h -22.83 z"
   id="path8" />
	<path
   class="st0"
   d="m 263.94,162.47 8.74,18.11 h 18.89 V 160.61 L 260.24,92.43 259.3,90.29 h -25.42 l -0.93,2.13 -31.67,68.19 v 19.97 h 18.55 l 9.07,-18.11 z m -17.51,-47.15 11.41,27.09 h -22.83 z"
   id="path10" />
	<path
   class="st0"
   d="m 545.91,147.47 0.24,0.29 27.05,32.56 h 16.7 v -16.67 l -16.72,-19.28 2.14,-1.03 c 3.48,-1.68 6.56,-4.14 9.16,-7.31 3.86,-4.71 5.81,-10.64 5.81,-17.62 0,-9.03 -3,-16.09 -8.91,-20.96 -5.76,-4.74 -13.43,-7.15 -22.82,-7.15 h -43.81 v 90.29 h 22.41 v -33.73 h 8.23 z m -8.75,-20.95 v -16.23 h 22.66 c 4.47,0 8.11,3.64 8.11,8.11 0,4.47 -3.64,8.11 -8.11,8.11 l -20.84,0.01 z"
   id="path12" />
	<polygon
   class="st0"
   points="186.36,90.29 162.28,90.29 160.72,92.67 138.33,129.04 115.92,92.65 114.37,90.29 90.29,90.29 90.3,180.58 112.71,180.58 112.71,133.67 129.36,162.47 147.32,162.47 163.96,133.67 163.96,180.58 186.37,180.58 "
   id="polygon14" />
</g>
</svg>
