<?xml version="1.0" encoding="UTF-8" standalone="no"?>
<!DOCTYPE svg PUBLIC "-//W3C//DTD SVG 1.1//EN" "http://www.w3.org/Graphics/SVG/1.1/DTD/svg11.dtd">
<svg width="100%" height="100%" viewBox="0 0 2292 2292" version="1.1" xmlns="http://www.w3.org/2000/svg" xmlns:xlink="http://www.w3.org/1999/xlink" xml:space="preserve" xmlns:serif="http://www.serif.com/" style="fill-rule:evenodd;clip-rule:evenodd;stroke-linejoin:round;stroke-miterlimit:2;">
    <g transform="matrix(4.16667,0,0,4.16667,-635.417,-889.583)">
        <g>
            <path d="M406.94,599.211L406.944,740.212L203.531,622.771L203.522,387.764L406.938,505.205L406.94,552.201L366.336,528.772L345.99,517.018L345.984,517.021L244.228,458.266L244.228,599.271L366.339,669.773L366.339,622.771L305.283,587.52L305.283,540.522L406.94,599.211Z" style="fill:rgb(0,177,255);fill-rule:nonzero;"/>
            <path d="M427.314,423.108L305.192,352.606L427.314,282.101L549.419,352.606L529.073,364.356L427.314,423.108ZM427.308,235.105L223.785,352.609L427.308,470.109L630.829,352.606L427.308,235.105Z" style="fill:rgb(0,177,255);fill-rule:nonzero;"/>
            <path d="M529.257,504.645L569.967,481.144L610.667,457.643L610.673,504.645L651.269,481.207L651.269,387.733L447.853,505.173L447.853,551.64L447.859,551.643L447.853,565.67L447.859,739.652L447.751,739.592L447.751,740.246L651.269,622.74L651.269,528.202L610.673,551.646L610.673,598.648L488.557,669.15L488.563,528.148L529.257,504.645Z" style="fill:rgb(0,177,255);fill-rule:nonzero;"/>
        </g>
    </g>
</svg>