<?xml version="1.0" encoding="UTF-8" standalone="no"?>
<!-- Generator: Adobe Illustrator 16.0.3, SVG Export Plug-In . SVG Version: 6.00 Build 0)  -->

<svg
   version="1.1"
   id="Layer_1"
   x="0px"
   y="0px"
   width="128.284"
   height="32.070999"
   viewBox="0 0 128.28399 32.071"
   enable-background="new 0 0 128.283 32.071"
   xml:space="preserve"
   sodipodi:docname="Ordnance_Survey_2015_Logo.svg"
   inkscape:version="1.1 (c4e8f9e, 2021-05-24)"
   xmlns:inkscape="http://www.inkscape.org/namespaces/inkscape"
   xmlns:sodipodi="http://sodipodi.sourceforge.net/DTD/sodipodi-0.dtd"
   xmlns="http://www.w3.org/2000/svg"
   xmlns:svg="http://www.w3.org/2000/svg"><defs
   id="defs1930"><filter
     style="color-interpolation-filters:sRGB"
     inkscape:label="Lighting"
     id="filter1934"
     x="0"
     y="0"
     width="1"
     height="1"><feColorMatrix
       values="0 0 0 0 0 0 0 0 0 0 0 0 0 0 0 9.63526 9.33131 8.7234 -7.7234 0 "
       id="feColorMatrix1932"
       result="fbSourceGraphic" /><feColorMatrix
       result="fbSourceGraphicAlpha"
       in="fbSourceGraphic"
       values="0 0 0 -1 0 0 0 0 -1 0 0 0 0 -1 0 0 0 0 1 0"
       id="feColorMatrix1962" /><feComponentTransfer
       id="feComponentTransfer1964"
       result="component"><feFuncR
         id="feFuncR1966"
         type="gamma"
         amplitude="18.1982"
         exponent="15.0751"
         offset="0.820359" /><feFuncG
         id="feFuncG1968"
         type="gamma"
         amplitude="18.1982"
         exponent="15.0751"
         offset="0.820359" /><feFuncB
         id="feFuncB1970"
         type="gamma"
         amplitude="18.1982"
         exponent="15.0751"
         offset="0.820359" /></feComponentTransfer></filter><filter
     style="color-interpolation-filters:sRGB"
     inkscape:label="Lighting"
     id="filter1938"
     x="0"
     y="0"
     width="1"
     height="1"><feColorMatrix
       values="0 0 0 0 0 0 0 0 0 0 0 0 0 0 0 9.63526 9.33131 8.7234 -7.7234 0 "
       id="feColorMatrix1936"
       result="fbSourceGraphic" /><feColorMatrix
       result="fbSourceGraphicAlpha"
       in="fbSourceGraphic"
       values="0 0 0 -1 0 0 0 0 -1 0 0 0 0 -1 0 0 0 0 1 0"
       id="feColorMatrix1972" /><feComponentTransfer
       id="feComponentTransfer1974"
       result="component"><feFuncR
         id="feFuncR1976"
         type="gamma"
         amplitude="18.1982"
         exponent="15.0751"
         offset="0.820359" /><feFuncG
         id="feFuncG1978"
         type="gamma"
         amplitude="18.1982"
         exponent="15.0751"
         offset="0.820359" /><feFuncB
         id="feFuncB1980"
         type="gamma"
         amplitude="18.1982"
         exponent="15.0751"
         offset="0.820359" /></feComponentTransfer></filter><filter
     style="color-interpolation-filters:sRGB"
     inkscape:label="Lighting"
     id="filter1942"
     x="0"
     y="0"
     width="1"
     height="1"><feColorMatrix
       values="0 0 0 0 0 0 0 0 0 0 0 0 0 0 0 9.63526 9.33131 8.7234 -7.7234 0 "
       id="feColorMatrix1940"
       result="fbSourceGraphic" /><feColorMatrix
       result="fbSourceGraphicAlpha"
       in="fbSourceGraphic"
       values="0 0 0 -1 0 0 0 0 -1 0 0 0 0 -1 0 0 0 0 1 0"
       id="feColorMatrix1982" /><feComponentTransfer
       id="feComponentTransfer1984"
       result="component"><feFuncR
         id="feFuncR1986"
         type="gamma"
         amplitude="18.1982"
         exponent="15.0751"
         offset="0.820359" /><feFuncG
         id="feFuncG1988"
         type="gamma"
         amplitude="18.1982"
         exponent="15.0751"
         offset="0.820359" /><feFuncB
         id="feFuncB1990"
         type="gamma"
         amplitude="18.1982"
         exponent="15.0751"
         offset="0.820359" /></feComponentTransfer></filter></defs><sodipodi:namedview
   id="namedview1928"
   pagecolor="#ffffff"
   bordercolor="#666666"
   borderopacity="1.0"
   inkscape:pageshadow="2"
   inkscape:pageopacity="0.0"
   inkscape:pagecheckerboard="0"
   showgrid="false"
   inkscape:zoom="8.7852635"
   inkscape:cx="64.084589"
   inkscape:cy="15.99269"
   inkscape:window-width="1296"
   inkscape:window-height="789"
   inkscape:window-x="0"
   inkscape:window-y="25"
   inkscape:window-maximized="0"
   inkscape:current-layer="Layer_1" />
<path
   fill="#42479d"
   d="M 13.434,31.85 C 13.372,31.842 13.268,31.825 13.122,31.799 13.06,31.787 12.943,31.766 12.773,31.733 11.256,31.42 9.794,30.885 8.43,30.149 L 8.476,29.87 c 0.343,-2.166 0.7,-4.402 1.593,-6.427 0.21,-0.219 0.362,-0.487 0.439,-0.782 l 3.413,0.11 c 0.295,0.004 0.517,0.008 0.666,0.012 v -0.001 c 0.277,-0.017 0.544,-0.105 0.775,-0.261 0.248,0.157 0.536,0.241 0.829,0.239 0.407,0.004 0.798,-0.161 1.082,-0.455 0.62,0.305 1.213,0.564 1.965,0.564 h 0.157 c 0.833,-0.068 1.657,-0.215 2.463,-0.438 0.793,-0.192 1.658,-0.424 2.539,-0.686 -0.664,0.744 -1.385,1.434 -2.156,2.061 -1.089,0.787 -2.25,1.466 -3.468,2.027 -0.654,0.324 -1.252,0.754 -1.771,1.271 -0.343,0.379 -0.634,0.803 -0.865,1.26 -0.057,0.099 -0.111,0.201 -0.171,0.302 -0.11,0.188 -0.234,0.368 -0.369,0.558 -0.27,0.35 -0.49,0.735 -0.656,1.146 -0.175,0.5 -0.328,1.02 -0.475,1.516 l -0.031,0.1 C 14.097,31.952 13.764,31.905 13.434,31.85 m 6.527,-5.865 c 1.21,1.654 2.99,2.63 4.818,3.482 -2.604,1.701 -5.641,2.605 -8.743,2.604 -0.312,0 -0.622,-0.01 -0.927,-0.029 0.14,-0.476 0.287,-0.968 0.452,-1.439 0.146,-0.354 0.338,-0.684 0.573,-0.984 0.142,-0.193 0.276,-0.394 0.4,-0.607 0.06,-0.101 0.116,-0.205 0.176,-0.31 0.202,-0.403 0.457,-0.78 0.756,-1.116 0.468,-0.465 1.007,-0.852 1.596,-1.145 z M 9.036,7.879 C 8.962,5.889 8.739,3.908 8.368,1.952 14.023,-1.124 20.948,-0.526 26.003,3.475 25.9,3.579 25.804,3.689 25.713,3.804 25.474,4.14 25.285,4.51 25.153,4.903 25.102,5.03 25.052,5.163 24.998,5.29 l -0.212,0.485 c -0.353,0.872 -0.784,1.71 -1.288,2.503 -0.411,0.57 -0.881,1.093 -1.402,1.562 -0.338,0.326 -0.684,0.662 -1.002,1.027 -0.082,0.109 -0.168,0.223 -0.258,0.335 l -0.622,-0.567 c -0.042,-0.081 -0.091,-0.17 -0.142,-0.261 -0.125,-0.166 -0.198,-0.365 -0.21,-0.573 0.021,-0.205 0.313,-0.434 0.537,-0.62 0.065,-0.054 0.13,-0.106 0.184,-0.156 C 20.65,8.967 20.691,8.885 20.696,8.796 20.702,8.707 20.671,8.619 20.611,8.554 20.553,8.487 20.471,8.447 20.383,8.442 20.296,8.436 20.21,8.466 20.144,8.525 c -0.049,0.044 -0.106,0.091 -0.165,0.138 -0.315,0.245 -0.697,0.573 -0.775,1.026 -0.026,0.363 0.075,0.724 0.287,1.018 l 0.036,0.071 c -0.067,0.093 -0.134,0.195 -0.204,0.302 -0.323,0.503 -0.56,0.826 -0.881,0.781 -0.818,-0.125 -0.991,0.339 -1.156,0.781 -0.165,0.443 -0.287,1.071 0.555,1.417 l 0.232,0.1 c 0.306,0.139 0.623,0.252 0.948,0.338 0.181,0.044 0.364,0.075 0.55,0.091 l 0.754,0.031 c 0.516,0.026 1.032,0.052 1.549,0.089 0.706,0.033 1.406,0.152 2.084,0.354 0.413,0.13 0.669,0.542 0.864,0.911 0.321,0.605 0.628,1.266 0.997,2.148 0.266,0.603 0.574,1.185 0.922,1.743 0.044,0.07 0.085,0.144 0.129,0.216 -0.168,0.096 -0.341,0.18 -0.532,0.26 -1.522,0.607 -3.089,1.093 -4.686,1.451 -0.754,0.207 -1.526,0.344 -2.306,0.409 -0.651,0.039 -1.175,-0.2 -1.768,-0.481 0.033,-0.129 0.05,-0.26 0.051,-0.391 0.021,-0.664 -0.432,-1.248 -1.077,-1.384 0.018,-0.272 0.042,-0.56 0.07,-0.819 0.066,-0.51 0.098,-1.023 0.096,-1.537 -0.008,-0.279 -0.026,-0.558 -0.044,-0.836 -0.018,-0.32 -0.042,-0.641 -0.042,-0.963 v -0.16 c -0.004,-0.956 -0.015,-2.375 -1.076,-2.864 -0.728,-0.303 -1.52,-0.416 -2.303,-0.328 -0.203,0.016 -0.403,0.045 -0.602,0.086 -0.413,0.073 -0.893,0.158 -1.151,0.021 -0.171,-0.089 -0.233,-0.365 -0.271,-0.652 -0.038,-0.318 -0.052,-0.64 -0.044,-0.961 V 10.71 C 11.182,10.26 11.153,9.809 11.123,9.374 L 11.091,8.853 C 11.081,8.684 11.066,8.51 11.053,8.332 10.982,7.814 10.982,7.288 11.053,6.77 11.197,6.033 11.319,5.304 11.419,4.686 11.449,4.504 11.328,4.332 11.147,4.302 10.967,4.272 10.796,4.395 10.766,4.577 10.66,5.189 10.544,5.913 10.402,6.64 c -0.086,0.576 -0.091,1.162 -0.015,1.739 0.012,0.185 0.026,0.357 0.036,0.521 0.01,0.164 0.034,0.342 0.034,0.521 0.028,0.432 0.059,0.872 0.059,1.302 v 0.219 c -0.008,0.348 0.009,0.696 0.049,1.042 0.041,0.286 0.165,0.908 0.635,1.146 0.47,0.237 1.048,0.133 1.565,0.041 0.17,-0.035 0.342,-0.061 0.516,-0.078 0.679,-0.076 1.365,0.022 1.996,0.284 0.697,0.307 0.697,1.471 0.697,2.252 v 0.168 c 0.003,0.332 0.023,0.664 0.044,0.996 0.018,0.271 0.041,0.553 0.041,0.813 0,0.484 -0.03,0.968 -0.09,1.449 -0.029,0.281 -0.057,0.572 -0.075,0.863 -0.69,0.101 -1.196,0.707 -1.177,1.41 -0.001,0.24 0.059,0.478 0.173,0.689 -0.15,0.083 -0.321,0.117 -0.491,0.099 l -3.85,-0.138 C 10.526,21.701 10.437,21.433 10.291,21.197 9.341,19.119 9.083,16.785 8.825,14.525 L 8.778,14.144 C 8.973,12.063 9.059,9.971 9.036,7.879 m 3.682,0.323 h -0.005 c -0.016,0.27 -0.002,0.539 0.041,0.805 0.019,0.161 0.132,0.774 0.277,0.844 0.144,0.07 0.513,0 0.66,0 h 1.684 V 8.569 H 14.996 V 6.947 h -1.694 c -0.191,0 -0.266,-0.039 -0.364,0.086 -0.197,0.247 -0.204,0.872 -0.22,1.169 M 7.381,20.713 C 7.34,21.655 7.306,22.627 7.283,23.619 6.356,23.517 5.476,23.086 5.476,22.172 c 0,-0.914 0.937,-1.379 1.905,-1.459 m 0.933,0.047 c 0.335,0.052 0.658,0.166 0.952,0.339 0.393,0.212 0.638,0.624 0.64,1.073 0,0.841 -0.798,1.3 -1.68,1.43 0.015,-0.969 0.046,-1.92 0.088,-2.842 m 20.121,-0.872 3.349,-0.845 c -0.324,1.703 -0.922,3.34 -1.769,4.848 -0.411,-0.602 -0.865,-1.174 -1.356,-1.711 -0.212,-0.203 -0.458,-0.366 -0.725,-0.485 -0.15,-0.073 -0.292,-0.16 -0.426,-0.26 -0.2,-0.192 -0.344,-0.435 -0.419,-0.703 0.466,-0.224 0.9,-0.507 1.291,-0.844 0.018,0.002 0.037,0.002 0.055,0 m 0.79,-2.065 c -0.343,0.547 -0.744,1.053 -1.198,1.508 -0.178,0.158 -0.368,0.303 -0.568,0.433 -0.047,-0.076 -0.091,-0.151 -0.135,-0.228 -0.336,-0.535 -0.634,-1.095 -0.89,-1.674 -0.388,-0.9 -0.702,-1.581 -1.033,-2.203 -0.124,-0.248 -0.277,-0.479 -0.457,-0.691 L 24.404,8.093 C 24.767,7.428 25.093,6.743 25.38,6.04 l 0.207,-0.481 c 0.059,-0.133 0.113,-0.273 0.167,-0.412 0.111,-0.331 0.268,-0.645 0.465,-0.932 0.089,-0.11 0.184,-0.214 0.284,-0.313 2.956,2.535 4.885,6.076 5.423,9.952 l -0.207,0.307 c -0.725,1.086 -1.477,2.208 -2.236,3.296 -0.093,0.122 -0.175,0.243 -0.258,0.366 m -7.302,-3.782 c -0.524,-0.036 -1.051,-0.062 -1.575,-0.093 l -0.547,-0.027 0.131,-0.208 c 0.495,-0.844 1.055,-1.648 1.674,-2.404 0.296,-0.344 0.635,-0.669 0.96,-0.982 0.448,-0.414 0.865,-0.861 1.249,-1.335 l 0.429,5.468 -0.07,-0.031 c -0.731,-0.223 -1.487,-0.353 -2.251,-0.388 m 7.847,4.16 0.248,-0.356 c 0.681,-0.978 1.35,-1.978 2.005,-2.956 0.026,0.369 0.047,0.763 0.047,1.151 -10e-4,0.764 -0.056,1.526 -0.165,2.283 l -2.706,0.682 c 0.201,-0.263 0.387,-0.544 0.571,-0.804 m -9.337,-6.457 c -0.379,0.529 -0.728,1.078 -1.069,1.62 l -0.289,0.461 c -0.253,-0.078 -0.502,-0.17 -0.743,-0.279 l -0.228,-0.104 c -0.289,-0.12 -0.341,-0.159 -0.188,-0.565 0.152,-0.406 0.152,-0.406 0.441,-0.364 0.757,0.109 1.208,-0.574 1.531,-1.074 l 0.08,-0.122 z M 8.344,20.083 c 0.05,-1.027 0.129,-2.067 0.212,-3.099 0.16,1.157 0.427,2.297 0.798,3.404 -0.32,-0.151 -0.66,-0.253 -1.01,-0.305 m -3,3.402 c 0.801,1.958 1.467,3.969 1.991,6.021 C 4.277,27.533 1.978,24.568 0.818,21.099 l 0.016,-0.021 0.198,-0.136 c 0.334,-0.198 0.637,-0.446 0.899,-0.735 0.315,0.237 0.63,0.475 0.932,0.735 0.224,0.183 0.447,0.364 0.674,0.541 0.236,0.177 0.484,0.336 0.741,0.479 0.196,0.115 0.377,0.224 0.55,0.347 0.03,0.435 0.214,0.842 0.516,1.151 z M 0.64,12.848 C 0.552,12.765 0.461,12.684 0.381,12.619 0.933,10.094 2.085,7.742 3.738,5.765 L 3.8,6.9 c 0.098,1.906 0.199,3.881 0.39,5.813 l 0.018,0.148 c 0.052,0.466 0.039,0.628 -0.15,0.727 -0.217,0.085 -0.449,0.126 -0.681,0.122 -0.096,0.006 -0.189,0.021 -0.277,0.021 -0.139,0.013 -0.291,0.045 -0.451,0.076 -0.344,0.062 -0.734,0.141 -0.917,0 C 1.357,13.513 0.993,13.174 0.64,12.848 m -0.416,0.521 c 0.354,0.329 0.718,0.665 1.105,0.958 l 0.065,0.045 0.124,4.058 c 0.002,0.127 0.015,0.265 0.03,0.402 0.033,0.233 0.033,0.471 0,0.703 -0.066,0.309 -0.534,0.623 -0.875,0.853 L 0.614,20.426 C 0.207,19 0,17.523 0,16.04 0.001,15.144 0.076,14.251 0.224,13.369 m 29.378,11.087 0.044,0.073 c -1.106,1.769 -2.541,3.304 -4.227,4.521 -1.841,-0.866 -3.674,-1.801 -4.862,-3.385 0.729,-0.386 1.427,-0.828 2.086,-1.326 0.816,-0.66 1.577,-1.388 2.275,-2.174 0.279,-0.298 0.558,-0.592 0.842,-0.881 0.243,-0.089 0.485,-0.18 0.723,-0.279 0.114,0.377 0.332,0.713 0.627,0.97 0.163,0.118 0.335,0.223 0.517,0.31 0.203,0.086 0.39,0.203 0.555,0.35 0.514,0.573 0.989,1.181 1.42,1.821 M 15.391,21.329 c -0.005,-0.212 0.08,-0.416 0.232,-0.562 0.152,-0.146 0.359,-0.22 0.568,-0.205 0.202,-0.004 0.398,0.065 0.555,0.192 0.161,0.146 0.247,0.356 0.235,0.574 0,0.442 -0.356,0.801 -0.795,0.801 -0.439,0 -0.795,-0.358 -0.795,-0.8 M 8.218,24.276 C 8.555,24.237 8.886,24.152 9.202,24.024 8.803,25.144 8.497,26.295 8.288,27.467 8.27,27.041 8.249,26.617 8.236,26.197 8.218,25.553 8.218,24.915 8.218,24.276 m -0.989,-6.25 c 0.059,-0.221 0.119,-0.443 0.183,-0.65 l 0.245,-0.855 c -0.095,1.17 -0.188,2.352 -0.245,3.529 -0.328,0.02 -0.654,0.08 -0.968,0.18 0.142,-0.25 0.262,-0.512 0.361,-0.781 0.166,-0.467 0.298,-0.954 0.424,-1.423 m 0.075,8.201 c 0.012,0.4 0.031,0.805 0.049,1.203 -0.338,-1.143 -0.71,-2.289 -1.152,-3.406 0.346,0.141 0.711,0.229 1.082,0.26 -0.003,0.64 0,1.289 0.021,1.943 M 4.461,6.848 C 4.43,6.251 4.398,5.651 4.363,5.048 5.291,4.052 6.34,3.178 7.484,2.447 7.815,4.244 8.012,6.063 8.076,7.89 8.128,9.775 8.014,11.692 7.869,13.58 L 6.836,17.187 C 6.772,17.409 6.712,17.635 6.65,17.859 6.526,18.318 6.398,18.792 6.24,19.24 6.11,19.576 5.951,19.899 5.762,20.206 5.68,20.37 5.589,20.534 5.504,20.701 5.227,20.921 5.02,21.218 4.905,21.555 L 4.598,21.371 C 4.366,21.244 4.143,21.1 3.929,20.942 3.707,20.778 3.485,20.6 3.266,20.421 2.922,20.142 2.568,19.845 2.202,19.585 2.237,19.312 2.237,19.036 2.202,18.764 2.189,18.642 2.173,18.522 2.173,18.41 L 2.065,14.543 C 2.298,14.531 2.529,14.499 2.757,14.447 2.883,14.418 3.025,14.379 3.142,14.379 L 3.4,14.362 c 0.327,0.003 0.65,-0.064 0.95,-0.196 0.638,-0.328 0.566,-0.971 0.516,-1.399 L 4.851,12.63 C 4.66,10.715 4.559,8.749 4.461,6.848"
   id="path1921"
   style="filter:url(#filter1942)" />
<path
   fill="#d7085f"
   d="m 41.486,30.629 v -0.003 c 0.399,0 0.722,0.323 0.722,0.722 0,0.399 -0.323,0.723 -0.722,0.723 -3.796,0 -7.418,-1.629 -10.201,-4.588 -0.212,-0.215 -0.276,-0.537 -0.162,-0.816 0.116,-0.26 0.375,-0.428 0.66,-0.428 0.218,0.005 0.425,0.099 0.571,0.261 2.5,2.664 5.741,4.129 9.132,4.129 M 44.409,1.402 V 1.408 C 44.039,1.363 43.768,1.039 43.788,0.668 43.808,0.297 44.111,0.005 44.483,0 h 0.089 c 3.207,0.353 6.163,1.901 8.279,4.335 0.23,0.265 0.23,0.66 0,0.925 C 52.713,5.412 52.518,5.5 52.313,5.503 52.105,5.504 51.907,5.415 51.77,5.258 49.89,3.093 47.261,1.717 44.409,1.402 m 0.065,16.71 c -0.235,-0.061 -0.472,-0.12 -0.702,-0.17 v -3.206 c 0.624,0.156 0.971,0.422 1.117,0.852 0.115,0.385 0.194,0.779 0.234,1.178 0.048,0.483 0.147,0.959 0.298,1.422 0.018,0.049 0.039,0.099 0.06,0.147 -0.335,-0.057 -0.673,-0.139 -1.007,-0.223 m 1.259,-2.82 c -0.331,-0.96 -1.19,-1.304 -1.949,-1.47 V 10.54 c 4.025,-0.008 7.722,2.209 9.609,5.761 l -0.621,0.489 c -0.065,0.053 -0.133,0.115 -0.203,0.178 -0.093,0.09 -0.192,0.17 -0.298,0.242 H 52.24 c -0.128,-0.053 -1.644,-0.946 -1.871,-1.094 -0.1,-0.066 -0.227,-0.074 -0.333,-0.021 -0.107,0.054 -0.177,0.16 -0.185,0.279 -0.006,0.119 0.051,0.233 0.15,0.298 l 0.102,0.05 -0.558,0.198 -0.159,0.052 c -0.32,0.063 -0.586,0.282 -0.707,0.585 -0.032,0.067 -0.071,0.174 -0.11,0.291 -0.061,0.188 -0.134,0.37 -0.219,0.547 -0.287,0.017 -1.216,0 -1.853,0 -0.085,-0.168 -0.162,-0.343 -0.229,-0.521 -0.129,-0.402 -0.217,-0.815 -0.261,-1.235 -0.047,-0.457 -0.137,-0.908 -0.274,-1.347 m 0.828,16.349 c -0.009,0.006 -0.018,0.014 -0.026,0.022 -0.521,0.14 -1.053,0.241 -1.589,0.303 -0.391,0.042 -0.584,0.13 -0.876,-0.065 -0.18,-0.113 -0.292,-0.309 -0.298,-0.521 v -0.71 -6.378 l 3.079,6.776 c -0.107,0.189 -0.202,0.383 -0.29,0.573 m 3.702,-5.813 c 0.572,0.866 1.493,1.421 2.273,1.812 -0.66,0.887 -1.452,1.666 -2.349,2.313 L 49.54,29.038 c -0.054,-0.077 -0.139,-0.127 -0.233,-0.14 -0.094,-0.011 -0.188,0.018 -0.26,0.08 l -1.667,1.446 -0.052,0.052 -3.545,-7.802 V 18.63 c 0.177,0.042 0.357,0.083 0.537,0.13 0.494,0.137 0.999,0.236 1.508,0.299 0.373,0.694 0.888,1.303 1.513,1.784 0.376,0.271 1.242,0.746 1.941,0.597 0.301,-0.061 0.56,-0.252 0.707,-0.521 0.159,-0.326 0.248,-0.681 0.261,-1.043 0.086,-1.074 0.41,-1.16 0.621,-1.019 0.415,0.275 0.175,0.979 -0.146,1.696 l -0.065,0.149 c -0.4,0.796 -0.692,1.643 -0.869,2.518 -0.181,0.899 -0.011,1.83 0.472,2.608 m 3.674,-6.962 c 0.148,0.074 0.3,0.13 0.449,0.197 0.574,2.69 0.086,5.498 -1.362,7.838 h -0.016 c -0.694,-0.354 -1.521,-0.842 -1.998,-1.563 -0.361,-0.588 -0.481,-1.291 -0.337,-1.966 0.161,-0.793 0.429,-1.563 0.793,-2.286 l 0.065,-0.147 c 0.279,-0.621 0.851,-2.086 -0.289,-2.754 -1.965,-1.148 -1.467,1.989 -2.043,2.32 -0.039,0.021 -0.047,0.063 -0.115,0.078 -0.29,0.059 -0.877,-0.18 -1.224,-0.439 -0.382,-0.293 -0.714,-0.645 -0.983,-1.043 H 47.5 c 0.385,0.022 0.77,-0.003 1.148,-0.076 0.243,-0.138 0.376,-0.477 0.538,-0.936 0.034,-0.097 0.062,-0.184 0.088,-0.238 0.066,-0.147 0.076,-0.149 0.301,-0.224 l 0.179,-0.058 0.859,-0.305 0.115,-0.047 c 0.034,-0.015 0.096,-0.047 0.081,-0.047 0.062,0.014 1.126,0.637 1.126,0.637 l 0.783,0.43 c 0.051,0.029 0.109,0.045 0.167,0.045 0.121,0 0.232,-0.065 0.29,-0.17 0.044,-0.077 0.056,-0.168 0.032,-0.254 -0.023,-0.086 -0.08,-0.158 -0.157,-0.203 l -0.157,-0.086 c 0.039,-0.033 0.052,-0.047 0.112,-0.099 0.06,-0.052 0.118,-0.106 0.175,-0.151 l 0.504,-0.403 c 0.193,0.433 0.358,0.878 0.496,1.332 -0.171,-0.067 -0.364,0.017 -0.431,0.187 -0.067,0.171 0.017,0.363 0.188,0.431 m -4.311,11.468 c -0.688,0.436 -1.423,0.793 -2.192,1.064 0.099,-0.174 0.225,-0.332 0.373,-0.467 l 1.388,-1.207 z M 36.878,15.915 34.348,13.702 C 34.043,11.279 33.254,8.942 32.028,6.83 l 1.978,1.679 c 0.139,0.116 0.232,0.278 0.261,0.456 0.11,0.411 0.188,0.829 0.234,1.252 0.045,0.369 0.109,0.737 0.191,1.099 0.174,0.928 0.606,1.787 1.247,2.479 0.82,0.857 1.958,1.335 3.144,1.322 0.206,0 0.413,-0.013 0.618,-0.039 0.788,-0.099 1.573,-0.245 2.335,-0.404 v 2.867 l -4.103,-1.128 c -0.074,-0.024 -0.167,-0.044 -0.262,-0.065 -0.152,-0.026 -0.3,-0.067 -0.443,-0.125 -0.081,-0.052 -0.155,-0.114 -0.219,-0.185 z m 0.889,1.142 4.281,1.178 v 3.052 c -2.902,-0.013 -5.674,-1.201 -7.681,-3.295 0.078,-0.675 0.118,-1.351 0.12,-2.03 0,-0.433 -0.018,-0.861 -0.047,-1.285 l 1.998,1.743 c 0.034,0.028 0.068,0.063 0.105,0.097 0.112,0.121 0.242,0.223 0.386,0.303 0.192,0.088 0.394,0.148 0.603,0.183 0.083,0.017 0.16,0.033 0.235,0.054 M 41.393,0.013 c 0.707,-0.039 0.655,0.758 0.655,0.758 v 13.011 c -0.799,0.166 -1.626,0.325 -2.445,0.427 -1.108,0.167 -2.228,-0.21 -3.008,-1.014 -0.531,-0.577 -0.886,-1.295 -1.023,-2.067 -0.075,-0.313 -0.12,-0.639 -0.167,-0.98 l 0.05,0.031 c 0.324,0.253 0.713,0.409 1.122,0.451 0.269,0 0.534,-0.074 0.764,-0.214 0.196,-0.109 0.287,-0.133 0.373,-0.109 0.325,0.11 0.628,0.273 0.898,0.484 0.146,0.11 0.164,0.123 -0.079,0.572 l -0.062,0.117 c -0.114,0.218 -0.03,0.487 0.188,0.602 0.064,0.033 0.136,0.051 0.208,0.052 0.166,10e-4 0.318,-0.092 0.394,-0.24 l 0.06,-0.109 C 39.533,11.381 39.929,10.662 39.146,10.078 38.794,9.798 38.396,9.582 37.97,9.439 37.623,9.359 37.259,9.42 36.957,9.608 36.851,9.681 36.727,9.722 36.598,9.728 36.039,9.673 35.314,9.081 35.236,9.081 35.205,8.946 35.173,8.852 35.131,8.717 35.053,8.371 34.863,8.062 34.591,7.836 L 32.577,6.123 C 32.523,6.079 32.459,6.049 32.392,6.035 33.082,4.613 34.077,3.361 35.306,2.367 l 0.018,0.039 c 0.055,0.119 0.174,0.196 0.305,0.195 0.048,10e-4 0.096,-0.009 0.139,-0.028 0.168,-0.077 0.242,-0.275 0.167,-0.444 L 35.854,1.952 C 37.481,0.8 39.4,0.128 41.393,0.013 m 6.783,14.757 c -0.059,0.066 -0.09,0.153 -0.085,0.242 0.005,0.089 0.045,0.171 0.111,0.23 0.222,0.201 0.449,0.401 0.679,0.597 0.061,0.05 0.137,0.078 0.216,0.078 0.141,-10e-4 0.266,-0.088 0.314,-0.221 0.048,-0.131 0.009,-0.279 -0.098,-0.37 C 49.089,15.138 48.868,14.94 48.651,14.745 48.513,14.621 48.3,14.631 48.176,14.77 m -1.044,-1.545 v 0.005 c -0.103,-0.153 -0.311,-0.194 -0.465,-0.091 -0.153,0.104 -0.194,0.31 -0.091,0.463 0.065,0.093 0.137,0.181 0.216,0.261 l 0.261,0.261 0.162,0.172 c 0.063,0.067 0.151,0.105 0.242,0.104 0.087,0 0.169,-0.032 0.233,-0.091 0.133,-0.128 0.139,-0.339 0.013,-0.474 l -0.162,-0.17 c -0.091,-0.081 -0.175,-0.172 -0.261,-0.26 -0.053,-0.058 -0.102,-0.117 -0.148,-0.18 m -1.542,-2.029 0.005,0.005 c -0.143,0.113 -0.168,0.32 -0.055,0.464 0.166,0.216 0.306,0.45 0.417,0.699 0.057,0.114 0.173,0.186 0.301,0.187 0.05,10e-4 0.1,-0.011 0.146,-0.034 0.08,-0.038 0.142,-0.106 0.172,-0.19 C 46.605,12.244 46.6,12.151 46.56,12.072 46.426,11.777 46.258,11.498 46.059,11.243 46.004,11.174 45.923,11.13 45.834,11.121 45.747,11.112 45.659,11.14 45.59,11.196 M 36.57,4.667 C 36.611,4.67 36.652,4.665 36.69,4.654 36.773,4.62 36.838,4.553 36.872,4.471 36.905,4.388 36.903,4.295 36.868,4.213 36.813,4.083 36.756,3.95 36.696,3.822 L 36.505,3.366 C 36.428,3.198 36.229,3.125 36.061,3.202 35.894,3.279 35.82,3.477 35.897,3.645 l 0.199,0.44 c 0.057,0.118 0.112,0.251 0.167,0.378 0.052,0.123 0.174,0.204 0.307,0.204 M 37.8,6.613 C 37.873,6.562 37.924,6.485 37.939,6.397 37.955,6.309 37.935,6.219 37.884,6.146 37.759,5.967 37.628,5.771 37.518,5.576 37.487,5.523 37.456,5.469 37.427,5.412 37.371,5.306 37.263,5.238 37.143,5.233 37.024,5.229 36.911,5.288 36.848,5.39 c -0.064,0.101 -0.069,0.229 -0.013,0.334 0.031,0.063 0.065,0.123 0.099,0.183 0.126,0.218 0.266,0.427 0.399,0.62 0.063,0.091 0.166,0.146 0.277,0.146 0.068,-0.001 0.134,-0.022 0.19,-0.06 m 1.793,1.413 C 39.62,7.94 39.611,7.846 39.569,7.767 39.526,7.687 39.453,7.628 39.366,7.603 L 39.034,7.5 C 38.907,7.465 38.786,7.411 38.674,7.339 38.648,7.317 38.624,7.292 38.604,7.266 38.489,7.122 38.278,7.099 38.134,7.214 37.99,7.329 37.967,7.539 38.082,7.683 c 0.055,0.071 0.118,0.135 0.188,0.19 0.176,0.118 0.371,0.206 0.577,0.261 l 0.109,0.034 0.081,0.026 0.138,0.044 c 0.074,0.026 0.156,0.026 0.23,0 0.091,-0.04 0.158,-0.116 0.188,-0.212 M 41.56,8.83 C 41.627,8.658 41.544,8.463 41.372,8.394 L 40.529,8.061 C 40.418,8.017 40.291,8.036 40.198,8.11 c -0.094,0.075 -0.14,0.194 -0.123,0.312 0.018,0.118 0.098,0.218 0.209,0.262 l 0.84,0.333 c 0.04,0.016 0.082,0.024 0.125,0.024 0.137,-0.001 0.26,-0.085 0.311,-0.211"
   id="path1923"
   style="filter:url(#filter1938)" />
<path
   fill="#42479d"
   d="m 83.077,14.152 c -0.671,0.732 -1.618,1.15 -2.613,1.149 -2.339,0 -4.036,-1.84 -4.036,-4.369 0,-2.701 2.096,-4.369 4.036,-4.369 0.992,-0.014 1.942,0.395 2.613,1.123 V 3.271 c 0,-0.077 0.062,-0.139 0.139,-0.139 h 1.374 c 0.078,0 0.141,0.062 0.143,0.139 V 14.923 C 84.73,15 84.668,15.062 84.59,15.062 h -1.374 c -0.077,0 -0.139,-0.062 -0.139,-0.139 z m -4.993,-3.22 c 0,1.413 0.646,2.935 2.496,2.943 1.563,0 2.497,-1.499 2.497,-2.943 0,-1.845 -0.935,-2.945 -2.497,-2.945 -1.723,0 -2.496,1.526 -2.496,2.945 m 8.34,4.127 c -0.037,0 -0.072,-0.015 -0.098,-0.04 C 86.3,14.993 86.285,14.957 86.285,14.92 V 6.925 c 0,-0.076 0.063,-0.138 0.139,-0.138 h 1.262 c 0.072,0 0.133,0.054 0.14,0.126 l 0.079,0.791 c 0.664,-0.753 1.631,-1.173 2.637,-1.146 2.076,0 3.13,1.354 3.13,4.021 v 4.34 c -10e-4,0.078 -0.063,0.139 -0.142,0.139 h -1.375 c -0.076,0 -0.139,-0.063 -0.139,-0.139 v -3.988 c 0,-0.694 0,-1.462 -0.222,-2.028 -0.243,-0.627 -0.704,-0.917 -1.478,-0.917 -0.957,0 -2.375,0.804 -2.375,1.917 v 5.016 c -0.002,0.078 -0.064,0.139 -0.143,0.139 h -1.374 z m 21.889,5.186 c 0.07,0.006 0.125,0.063 0.129,0.131 0.004,0.021 0.004,0.043 0,0.064 l -3.59,8.618 c -0.703,1.631 -1.828,2.657 -3.166,2.888 h -0.004 c -0.041,-0.001 -0.08,-0.02 -0.107,-0.051 l -0.748,-0.913 c -0.031,-0.037 -0.04,-0.087 -0.025,-0.134 0.016,-0.045 0.053,-0.08 0.1,-0.092 1.297,-0.321 2.051,-1.033 2.513,-2.377 l -3.335,-7.941 c -0.021,-0.041 -0.021,-0.09 0,-0.131 0.027,-0.038 0.07,-0.062 0.117,-0.063 h 1.438 c 0.059,-0.001 0.112,0.035 0.133,0.09 l 2.482,6.375 2.548,-6.377 c 0.021,-0.054 0.074,-0.089 0.132,-0.088 h 1.383 z M 64.878,3.132 c 3.173,0 5.755,2.727 5.755,6.078 0,3.352 -2.585,6.091 -5.755,6.091 -3.169,0 -5.748,-2.739 -5.748,-6.091 0,-3.351 2.579,-6.078 5.748,-6.078 m 4.099,6.078 c 0,-2.567 -1.836,-4.656 -4.099,-4.656 -2.261,0 -4.1,2.089 -4.1,4.656 0,2.567 1.842,4.657 4.1,4.657 2.261,0 4.099,-2.087 4.099,-4.657 m 8.25,11.035 c 0.039,0 0.074,0.014 0.102,0.04 0.025,0.026 0.041,0.062 0.041,0.099 v 7.996 c 0,0.037 -0.016,0.072 -0.041,0.099 -0.027,0.026 -0.063,0.041 -0.102,0.04 H 75.969 C 75.897,28.521 75.835,28.464 75.83,28.393 L 75.747,27.6 c -0.663,0.755 -1.63,1.175 -2.636,1.146 -2.076,0 -3.131,-1.352 -3.131,-4.021 v -4.342 c 0,-0.076 0.063,-0.139 0.142,-0.139 h 1.377 c 0.037,0 0.071,0.016 0.099,0.041 0.026,0.026 0.041,0.061 0.041,0.098 v 3.996 c 0,0.726 0,1.463 0.219,2.031 0.246,0.624 0.707,0.914 1.48,0.914 0.957,0 2.375,-0.804 2.375,-1.914 v -5.027 c 0,-0.037 0.016,-0.071 0.041,-0.098 0.025,-0.025 0.063,-0.041 0.1,-0.041 h 1.373 z m 15.201,0.062 c 0.027,0.039 0.032,0.089 0.014,0.133 l -3.416,7.993 c -0.021,0.051 -0.071,0.085 -0.127,0.085 h -1.321 c -0.056,0 -0.106,-0.034 -0.13,-0.085 l -3.364,-7.995 c -0.019,-0.043 -0.015,-0.092 0.012,-0.131 0.027,-0.039 0.07,-0.063 0.116,-0.063 h 1.436 c 0.058,-0.001 0.11,0.035 0.131,0.09 l 2.457,6.295 2.545,-6.297 c 0.021,-0.053 0.072,-0.088 0.13,-0.088 h 1.401 c 0.045,0.001 0.09,0.024 0.116,0.063 m 3.941,-0.29 c 2.455,0 3.807,1.612 3.807,4.553 0.001,0.037 -0.014,0.074 -0.04,0.101 -0.026,0.027 -0.062,0.041 -0.099,0.041 h -6.04 c 0.101,1.293 0.769,2.621 2.372,2.621 1.179,0 2.23,-0.356 2.879,-0.979 0.033,-0.033 0.084,-0.047 0.131,-0.036 0.046,0.01 0.083,0.043 0.098,0.087 l 0.402,1.08 c 0.021,0.055 0.005,0.117 -0.038,0.157 -1.077,0.92 -2.483,1.112 -3.472,1.112 -2.414,0 -4.038,-1.756 -4.038,-4.369 0,-2.533 1.698,-4.368 4.038,-4.368 m -2.357,3.507 h 4.485 c -0.243,-1.413 -0.923,-2.073 -2.128,-2.073 -1.204,0 -2.115,0.805 -2.357,2.073 M 71.868,15.059 c -0.077,0 -0.14,-0.063 -0.14,-0.139 V 6.938 c 0,-0.076 0.063,-0.138 0.14,-0.138 h 1.261 c 0.072,-10e-4 0.133,0.054 0.141,0.125 l 0.071,0.725 c 0.455,-0.677 1.22,-1.085 2.037,-1.087 0.296,0.004 0.591,0.045 0.877,0.121 0.063,0.014 0.108,0.071 0.108,0.136 v 1.249 c 0,0.05 -0.026,0.096 -0.069,0.121 -0.043,0.025 -0.097,0.025 -0.14,0 -0.25,-0.166 -0.549,-0.241 -0.846,-0.211 -1.787,0 -1.925,1.992 -1.925,2.601 v 4.34 c 0,0.038 -0.014,0.073 -0.041,0.1 -0.026,0.025 -0.063,0.04 -0.1,0.039 z m 52.609,-8.496 c 2.455,0 3.807,1.611 3.807,4.544 0,0.077 -0.063,0.139 -0.139,0.139 h -6.041 c 0.101,1.295 0.771,2.621 2.373,2.621 1.193,0 2.226,-0.365 2.883,-0.982 0.033,-0.032 0.08,-0.046 0.127,-0.036 0.047,0.01 0.086,0.043 0.103,0.088 l 0.401,1.079 c 0.031,0.059 0.012,0.131 -0.043,0.17 -1.078,0.922 -2.481,1.115 -3.471,1.115 -2.414,0 -4.037,-1.76 -4.037,-4.369 -0.001,-2.534 1.697,-4.369 4.037,-4.369 m -2.358,3.495 h 4.484 c -0.242,-1.413 -0.924,-2.074 -2.127,-2.074 -1.205,0 -2.115,0.81 -2.357,2.074 m -56.998,11.47 c 2.499,0.658 3.766,1.925 3.763,3.768 -0.01,2.032 -1.575,3.451 -3.807,3.451 -1.666,-0.018 -3.169,-0.574 -4.02,-1.486 -0.042,-0.051 -0.042,-0.123 0,-0.174 l 0.719,-1.027 c 0.023,-0.034 0.06,-0.057 0.101,-0.061 0.04,-0.006 0.08,0.008 0.108,0.036 0.842,0.788 1.941,1.244 3.095,1.285 0.547,0.019 1.076,-0.188 1.463,-0.574 0.387,-0.386 0.594,-0.913 0.574,-1.458 0.013,-1.386 -1.086,-1.794 -2.419,-2.156 -2.14,-0.584 -3.311,-1.807 -3.311,-3.437 0,-2.125 1.913,-3.108 3.69,-3.108 1.021,0.004 2.021,0.291 2.886,0.83 0.032,0.021 0.055,0.055 0.063,0.092 0.008,0.037 -0.002,0.076 -0.023,0.105 l -0.704,0.997 c -0.042,0.058 -0.12,0.076 -0.183,0.043 -0.62,-0.369 -1.318,-0.589 -2.038,-0.642 -1.003,0 -2.034,0.521 -2.034,1.688 -0.027,1.126 1.172,1.571 2.077,1.828 m 18.33,-1.397 c 0.063,0.017 0.107,0.074 0.107,0.14 v 1.254 c 0,0.051 -0.027,0.099 -0.072,0.123 -0.043,0.024 -0.096,0.024 -0.139,0 -0.25,-0.165 -0.55,-0.24 -0.849,-0.21 -1.782,0 -1.921,1.99 -1.921,2.601 v 4.341 c 0,0.037 -0.016,0.071 -0.041,0.098 -0.026,0.025 -0.063,0.041 -0.1,0.041 h -1.377 c -0.076,0 -0.139,-0.063 -0.139,-0.139 v -7.996 c 0,-0.037 0.016,-0.071 0.04,-0.098 0.026,-0.025 0.062,-0.041 0.099,-0.041 h 1.262 c 0.072,0 0.133,0.055 0.139,0.126 l 0.073,0.726 c 0.454,-0.678 1.218,-1.086 2.036,-1.088 0.299,0.007 0.594,0.049 0.882,0.122 m 35.957,-7.071 c 0.045,0.017 0.076,0.056 0.085,0.103 l 0.356,1.079 c 0.018,0.055 0,0.114 -0.045,0.152 -0.729,0.601 -1.707,0.907 -2.904,0.907 -2.444,0 -4.154,-1.85 -4.154,-4.384 0,-2.534 1.754,-4.369 4.171,-4.369 0.601,0 2.089,0.116 2.862,1.184 0.035,0.049 0.035,0.114 0,0.163 l -0.58,0.837 c -0.023,0.038 -0.064,0.06 -0.108,0.062 -0.044,-0.004 -0.085,-0.023 -0.116,-0.054 -0.576,-0.715 -1.246,-0.771 -2.063,-0.771 -1.842,0 -2.494,1.586 -2.494,2.945 0,1.868 0.907,2.942 2.494,2.942 0.855,0.037 1.697,-0.237 2.367,-0.771 0.035,-0.03 0.084,-0.04 0.129,-0.025 m -20.834,2.241 c -2.34,0 -4.036,-1.848 -4.036,-4.369 0,-2.701 2.094,-4.369 4.036,-4.369 1.009,-0.014 1.973,0.409 2.644,1.159 L 101.3,6.913 c 0.007,-0.072 0.068,-0.126 0.14,-0.126 h 1.262 c 0.076,0 0.139,0.062 0.139,0.138 v 8.011 c 0,0.077 -0.063,0.139 -0.139,0.139 h -1.377 c -0.077,0 -0.141,-0.062 -0.141,-0.139 v -0.771 c -0.67,0.728 -1.618,1.14 -2.61,1.136 m -2.381,-4.369 c 0,1.413 0.656,2.935 2.494,2.943 1.563,0 2.496,-1.499 2.496,-2.943 0,-1.845 -0.933,-2.945 -2.496,-2.945 -1.72,0 -2.494,1.526 -2.494,2.945 m 12.455,-4.369 c 2.078,0 3.131,1.349 3.121,4.017 v 4.34 c 0,0.077 -0.063,0.139 -0.141,0.139 h -1.377 c -0.077,0 -0.139,-0.063 -0.139,-0.139 v -3.988 c 0,-0.694 0,-1.462 -0.219,-2.028 -0.246,-0.627 -0.707,-0.917 -1.48,-0.917 -0.955,0 -2.376,0.804 -2.376,1.917 v 5.016 c 0,0.037 -0.015,0.073 -0.04,0.099 -0.027,0.025 -0.063,0.04 -0.1,0.04 h -1.377 c -0.076,0 -0.14,-0.063 -0.14,-0.139 V 6.931 c 0,-0.077 0.063,-0.139 0.14,-0.139 h 1.27 c 0.072,0 0.132,0.054 0.139,0.126 l 0.08,0.791 c 0.666,-0.753 1.634,-1.173 2.639,-1.146"
   id="path1925"
   style="filter:url(#filter1934)" />
</svg>
