<?xml version="1.0" encoding="UTF-8" standalone="no"?>
<!-- Generator: Adobe Illustrator 21.1.0, SVG Export Plug-In . SVG Version: 6.00 Build 0)  -->

<svg
   version="1.1"
   id="Layer_1"
   x="0px"
   y="0px"
   viewBox="0 0 627.5 170.98572"
   xml:space="preserve"
   sodipodi:docname="geobeyond.svg"
   width="627.5"
   height="170.98573"
   inkscape:version="1.1 (c4e8f9e, 2021-05-24)"
   xmlns:inkscape="http://www.inkscape.org/namespaces/inkscape"
   xmlns:sodipodi="http://sodipodi.sourceforge.net/DTD/sodipodi-0.dtd"
   xmlns="http://www.w3.org/2000/svg"
   xmlns:svg="http://www.w3.org/2000/svg"><defs
   id="defs35">
	
	
	
	
	
	
	
	
	

	
	
	
</defs><sodipodi:namedview
   id="namedview33"
   pagecolor="#ffffff"
   bordercolor="#666666"
   borderopacity="1.0"
   inkscape:pageshadow="2"
   inkscape:pageopacity="0"
   inkscape:pagecheckerboard="0"
   showgrid="false"
   inkscape:zoom="1.7960159"
   inkscape:cx="313.47161"
   inkscape:cy="85.466948"
   inkscape:window-width="1296"
   inkscape:window-height="781"
   inkscape:window-x="0"
   inkscape:window-y="25"
   inkscape:window-maximized="0"
   inkscape:current-layer="Layer_1" />
<style
   type="text/css"
   id="style2">
	.st0{fill:#FFFFFF;}
</style>
<path
   class="st0"
   d="m 231.2,79.385742 h -6.6 v 7.3 h 6.6 v 7.4 c -3.4,2.2 -7.7,3.3 -12.7,3.3 -5.1,0 -9.4,-1.7 -13,-5.2 -3.6,-3.4 -5.4,-8 -5.4,-13.7 0,-5.7 1.8,-10.3 5.5,-13.8 3.7,-3.5 8.2,-5.2 13.6,-5.2 2.8,0 5.3,0.3 7.4,1 2.1,0.7 4.2,1.9 6.3,3.7 l 4.8,-6.9 c -5.1,-4.5 -11.5,-6.7 -19.2,-6.7 -7.7,0 -14.3,2.7 -19.7,8 -5.4,5.3 -8.1,11.9 -8.1,19.9 0,8 2.7,14.5 8,19.7 5.3,5.199998 11.9,7.799998 19.8,7.799998 9.4,0 16.6,-2.8 21.6,-8.299998 v -18.3 z"
   id="path4"
   style="fill:#000000" /><path
   class="st0"
   d="m 282.8,69.185742 c -3.9,-3.3 -8.6,-5 -14.1,-5 -5.5,0 -10.3,1.9 -14.4,5.7 -4.1,3.8 -6.1,8.9 -6.1,15.3 0,6.4 2,11.5 6,15.299998 4,3.8 8.9,5.7 14.6,5.7 7,0 12.7,-2.3 17.1,-6.799998 l -4.9,-5.4 c -2.7,3.2 -6.5,4.8 -11.6,4.8 -3.2,0 -6.1,-0.9 -8.6,-2.7 -2.5,-1.8 -3.8,-4.2 -4.1,-7.1 h 31.9 v -5.9 c 0,-6 -1.9,-10.6 -5.8,-13.9 z m -26,12.9 c 0,-3.3 1.2,-5.8 3.7,-7.8 2.5,-1.9 5.3,-2.9 8.4,-2.9 3.1,0 5.8,0.9 7.9,2.8 2.1,1.8 3.2,4.5 3.2,7.9 z"
   id="path6"
   style="fill:#000000" /><path
   class="st0"
   d="m 316.8,64.185742 c -6.1,0 -11.2,2 -15.3,6.1 -4.1,4.1 -6.1,9 -6.1,14.9 0,5.9 2,10.8 6.1,14.899998 4.1,4.1 9.2,6.1 15.3,6.1 6.1,0 11.2,-2 15.3,-6.1 4.1,-4.099998 6.1,-8.999998 6.1,-14.899998 0,-5.9 -2,-10.8 -6.1,-14.9 -4.1,-4.1 -9.2,-6.1 -15.3,-6.1 z m 9.2,30.5 c -2.4,2.5 -5.5,3.7 -9.2,3.7 -3.7,0 -6.8,-1.2 -9.2,-3.7 -2.4,-2.5 -3.6,-5.7 -3.6,-9.6 0,-3.9 1.2,-7.1 3.6,-9.6 2.4,-2.5 5.5,-3.7 9.2,-3.7 3.7,0 6.8,1.2 9.2,3.7 2.4,2.5 3.6,5.7 3.6,9.6 0,3.9 -1.2,7.1 -3.6,9.6 z"
   id="path8"
   style="fill:#000000" /><path
   class="st0"
   d="m 369.7,64.185742 c -5.5,0 -9.9,2.6 -13.2,7.7 v -23.2 h -8.6 v 56.699998 h 8.6 v -6.099998 c 4.1,4.499998 8.7,6.699998 13.8,6.699998 5.1,0 9.6,-2 13.5,-5.9 3.8,-3.899998 5.8,-8.999998 5.8,-15.299998 0,-6.3 -1.9,-11.3 -5.8,-15.1 -4,-3.7 -8.7,-5.5 -14.1,-5.5 z m 7.5,30.5 c -2.5,2.4 -5.4,3.7 -8.8,3.7 -3.4,0 -6.2,-1.2 -8.6,-3.7 -2.3,-2.5 -3.5,-5.6 -3.5,-9.5 0,-3.9 1.2,-7.1 3.5,-9.7 2.3,-2.6 5.2,-3.9 8.6,-3.9 3.4,0 6.3,1.3 8.8,3.9 2.4,2.6 3.7,5.8 3.7,9.7 0,3.9 -1.2,7.1 -3.7,9.5 z"
   id="path10"
   style="fill:#000000" /><path
   class="st0"
   d="m 431.3,69.185742 c -3.9,-3.3 -8.6,-5 -14.1,-5 -5.5,0 -10.3,1.9 -14.4,5.7 -4.1,3.8 -6.1,8.9 -6.1,15.3 0,6.4 2,11.5 6,15.299998 4,3.8 8.9,5.7 14.6,5.7 7,0 12.7,-2.3 17.1,-6.799998 l -4.9,-5.4 c -2.7,3.2 -6.5,4.8 -11.6,4.8 -3.2,0 -6.1,-0.9 -8.6,-2.7 -2.5,-1.8 -3.8,-4.2 -4.1,-7.1 h 31.9 v -5.9 c 0,-6 -1.9,-10.6 -5.8,-13.9 z m -26.1,12.9 c 0,-3.3 1.2,-5.8 3.7,-7.8 2.5,-1.9 5.3,-2.9 8.4,-2.9 3.1,0 5.8,0.9 7.9,2.8 2.1,1.8 3.2,4.5 3.2,7.9 z"
   id="path12"
   style="fill:#000000" /><path
   class="st0"
   d="m 461.9,94.685742 -12.2,-30 h -9.2 c 11,27.2 16.4,41.099998 16.4,41.799998 0,1.6 -0.6,3.1 -1.8,4.5 -1.2,1.4 -2.8,2.1 -4.7,2.1 -1.9,0 -3.8,-0.8 -5.5,-2.5 l -3.9,7 c 3,2.7 6.4,4.1 10.1,4.1 2.6,0 5.1,-0.8 7.3,-2.3 2.2,-1.5 3.9,-3.6 5,-6.3 l 19.7,-48.299998 h -9.2 z"
   id="path14"
   style="fill:#000000" /><path
   class="st0"
   d="m 508,64.185742 c -6.1,0 -11.2,2 -15.3,6.1 -4.1,4.1 -6.1,9 -6.1,14.9 0,5.9 2,10.8 6.1,14.899998 4.1,4.1 9.2,6.1 15.3,6.1 6.1,0 11.2,-2 15.3,-6.1 4.1,-4.099998 6.1,-8.999998 6.1,-14.899998 0,-5.9 -2,-10.8 -6.1,-14.9 -4.1,-4.1 -9.2,-6.1 -15.3,-6.1 z m 9.2,30.5 c -2.4,2.5 -5.5,3.7 -9.2,3.7 -3.7,0 -6.8,-1.2 -9.2,-3.7 -2.4,-2.5 -3.6,-5.7 -3.6,-9.6 0,-3.9 1.2,-7.1 3.6,-9.6 2.4,-2.5 5.5,-3.7 9.2,-3.7 3.7,0 6.8,1.2 9.2,3.7 2.4,2.5 3.6,5.7 3.6,9.6 0,3.9 -1.2,7.1 -3.6,9.6 z"
   id="path16"
   style="fill:#000000" /><path
   class="st0"
   d="m 561.2,64.185742 c -2.8,0 -5.4,0.7 -7.8,2.1 -2.4,1.4 -4.3,3.4 -5.7,5.9 v -7.4 h -8.6 v 40.599998 h 8.6 V 83.385742 c 0,-3.8 1.1,-6.6 3.3,-8.6 2.2,-2 4.8,-2.9 7.7,-2.9 6.2,0 9.3,3.7 9.3,11.2 v 22.299998 h 8.6 V 80.485742 c 0,-5.3 -1.4,-9.4 -4.2,-12.2 -2.9,-2.7 -6.6,-4.1 -11.2,-4.1 z"
   id="path18"
   style="fill:#000000" /><path
   class="st0"
   d="m 618.9,48.685742 v 22.3 c -3.3,-4.6 -7.7,-6.9 -13.1,-6.9 -5.4,0 -10.1,1.9 -14,5.7 -3.9,3.8 -5.9,8.8 -5.9,15.1 0,6.3 1.9,11.4 5.7,15.299998 3.8,3.9 8.3,5.8 13.5,5.8 6.1,0 10.7,-2.2 13.8,-6.699998 v 6.099998 h 8.6 V 48.685742 Z m -3.3,46.1 c -2.3,2.5 -5.2,3.7 -8.6,3.7 -3.4,0 -6.3,-1.2 -8.8,-3.7 -2.5,-2.4 -3.7,-5.6 -3.7,-9.5 0,-3.9 1.2,-7.1 3.7,-9.7 2.4,-2.6 5.4,-3.9 8.8,-3.9 3.4,0 6.3,1.3 8.6,3.9 2.3,2.6 3.5,5.8 3.5,9.7 0,3.8 -1.2,7 -3.5,9.5 z"
   id="path20"
   style="fill:#000000" />
<path
   class="st0"
   d="m 84.4,134.18574 c -0.6,0 -1.2,-0.2 -1.8,-0.5 L 1.8,86.985742 c -1.1,-0.6 -1.8,-1.8 -1.8,-3.1 0,-1.3 0.7,-2.5 1.8,-3.1 l 25.9,-15 c 1.7,-1 3.9,-0.4 4.9,1.3 1,1.7 0.4,3.9 -1.3,4.9 l -20.5,11.9 73.6,42.499998 73.1,-42.199998 -26.8,-15.5 c -1.7,-1 -2.3,-3.2 -1.3,-4.9 1,-1.7 3.2,-2.3 4.9,-1.3 l 32.3,18.6 c 1.1,0.6 1.8,1.8 1.8,3.1 0,1.3 -0.7,2.5 -1.8,3.1 L 86.3,133.68574 c -0.6,0.3 -1.2,0.5 -1.9,0.5 z"
   id="path24"
   style="fill:#000000" /><path
   class="st0"
   d="m 84.4,170.98574 c -0.6,0 -1.2,-0.2 -1.8,-0.5 l -80.8,-46.7 c -1.1,-0.6 -1.8,-1.8 -1.8,-3.1 0,-1.3 0.7,-2.5 1.8,-3.1 L 33.7,99.185742 c 1.7,-1 3.9,-0.4 4.9,1.299998 1,1.7 0.4,3.9 -1.3,4.9 l -26.5,15.3 73.6,42.5 73.1,-42.2 -26.5,-15.3 c -1.7,-1 -2.3,-3.2 -1.3,-4.9 1,-1.699998 3.2,-2.299998 4.9,-1.299998 l 31.9,18.399998 c 1.1,0.6 1.8,1.8 1.8,3.1 0,1.3 -0.7,2.5 -1.8,3.1 l -80.3,46.4 c -0.5,0.3 -1.1,0.5 -1.8,0.5 z"
   id="path26"
   style="fill:#000000" /><path
   class="st0"
   d="m 112.8,94.485742 c -0.3,0 -0.6,0 -0.9,-0.1 l -104,-27.4 c -1.2,-0.3 -2.1,-1.2 -2.5,-2.3 -0.4,-1.2 -0.1,-2.5 0.6,-3.4 l 46.8,-59.9 c 0.9,-1.09999999 2.4,-1.59999999 3.8,-1.29999999 L 160.5,27.485742 c 1.2,0.3 2.1,1.2 2.5,2.3 0.4,1.2 0.2,2.4 -0.6,3.4 l -46.8,59.8 c -0.7,1 -1.7,1.5 -2.8,1.5 z m -97.7,-33.1 96.3,25.4 41.9,-53.6 -96.3,-25.5 z"
   id="path28"
   style="fill:#000000" />
</svg>
